<svg width="64" height="46" fill="none" xmlns="http://www.w3.org/2000/svg"><path d="m4.761 30.341 5.77-6.29a.81.81 0 0 0 0-1.102l-5.77-6.29h10.003A6.543 6.543 0 0 1 15 15H2.855a.854.854 0 0 0-.78.491.806.806 0 0 0 .142.89l6.53 7.12-6.53 7.12a.804.804 0 0 0-.141.89c.137.298.442.489.78.489H15a6.606 6.606 0 0 1-.236-1.659H4.76ZM55.252 23.5l6.53-7.118a.805.805 0 0 0 .141-.891.855.855 0 0 0-.78-.491H49c.152.547.226 1.101.236 1.659H59.24l-5.77 6.29a.81.81 0 0 0 0 1.103l5.77 6.29H49.238A6.602 6.602 0 0 1 49.004 32h12.141c.337 0 .643-.19.78-.49a.806.806 0 0 0-.142-.89L55.25 23.5Z" fill="#fff"/><path d="M51 22.998a5.224 5.224 0 0 0-2.437-4.439 5.225 5.225 0 0 0-.107-5.061 5.283 5.283 0 0 0-4.328-2.623 5.22 5.22 0 0 0-2.627-4.33c-1.546-.89-3.505-.914-5.06-.106A5.22 5.22 0 0 0 32 4c-1.84 0-3.49.932-4.44 2.439-1.552-.81-3.515-.786-5.06.106a5.214 5.214 0 0 0-2.625 4.334 5.27 5.27 0 0 0-4.332 2.623 5.218 5.218 0 0 0-.107 5.06A5.223 5.223 0 0 0 13 23.002a5.223 5.223 0 0 0 2.437 4.436 5.229 5.229 0 0 0 .107 5.064 5.285 5.285 0 0 0 4.332 2.62 5.213 5.213 0 0 0 2.622 4.333 5.337 5.337 0 0 0 5.062.105A5.217 5.217 0 0 0 31.998 42a5.22 5.22 0 0 0 4.44-2.44c1.55.81 3.516.786 5.06-.105a5.224 5.224 0 0 0 2.626-4.334 5.277 5.277 0 0 0 4.33-2.623 5.221 5.221 0 0 0 .107-5.063A5.217 5.217 0 0 0 51 22.998Zm-3.964 3.324a.855.855 0 0 0-.512.57c-.069.26-.01.536.16.748a3.544 3.544 0 0 1 .31 4.014 3.584 3.584 0 0 1-3.09 1.785c-.18 0-.362-.015-.543-.043a.847.847 0 0 0-.964.964 3.544 3.544 0 0 1-1.741 3.633c-1.253.721-2.903.586-4.017-.31a.848.848 0 0 0-1.317.355A3.54 3.54 0 0 1 32 40.313a3.548 3.548 0 0 1-3.324-2.277.843.843 0 0 0-.787-.54.84.84 0 0 0-.528.185c-1.111.896-2.765 1.03-4.015.313a3.545 3.545 0 0 1-1.74-3.635.846.846 0 0 0-.964-.964 3.596 3.596 0 0 1-3.634-1.738 3.547 3.547 0 0 1 .31-4.018.847.847 0 0 0 .16-.748.847.847 0 0 0-.513-.567 3.545 3.545 0 0 1-2.276-3.322 3.546 3.546 0 0 1 2.276-3.326c.25-.096.441-.309.512-.567a.846.846 0 0 0-.159-.748 3.546 3.546 0 0 1-.312-4.015c.728-1.258 2.195-1.969 3.633-1.74a.833.833 0 0 0 .728-.239.841.841 0 0 0 .238-.726 3.541 3.541 0 0 1 1.74-3.633c1.254-.723 2.904-.59 4.016.31a.844.844 0 0 0 1.315-.354A3.541 3.541 0 0 1 32 5.69a3.54 3.54 0 0 1 3.324 2.275.85.85 0 0 0 .57.512c.257.072.536.01.746-.16 1.11-.896 2.764-1.03 4.014-.31a3.547 3.547 0 0 1 1.743 3.632.845.845 0 0 0 .964.964 3.593 3.593 0 0 1 3.631 1.741 3.544 3.544 0 0 1-.309 4.014.848.848 0 0 0-.159.749.85.85 0 0 0 .512.569 3.546 3.546 0 0 1 2.275 3.323 3.545 3.545 0 0 1-2.275 3.324Z" fill="#fff"/><path d="M32 11c-6.617 0-12 5.383-12 12s5.383 12 12 12 12-5.383 12-12-5.383-12-12-12Zm0 22.343c-5.703 0-10.344-4.641-10.344-10.344 0-5.702 4.642-10.344 10.344-10.344 5.703 0 10.344 4.642 10.344 10.344 0 5.703-4.642 10.344-10.344 10.344Z" fill="#fff"/></svg>