<svg width="33" height="28" fill="none" xmlns="http://www.w3.org/2000/svg"><path d="M31.756 5.247h-5.282V1.493c0-.298-.12-.585-.334-.796a1.147 1.147 0 0 0-.806-.33H3.829c-.957 0-1.876.376-2.553 1.045A3.544 3.544 0 0 0 .22 3.933v19.67c0 .947.38 1.854 1.057 2.523A3.633 3.633 0 0 0 3.83 27.17h27.927c.302 0 .592-.119.806-.33a1.12 1.12 0 0 0 .334-.796V6.374c0-.3-.12-.586-.334-.797a1.147 1.147 0 0 0-.806-.33ZM2.461 3.933c0-.348.14-.682.39-.929.249-.246.587-.384.94-.384h20.403v2.627H3.829a1.345 1.345 0 0 1-.965-.371 1.314 1.314 0 0 1-.403-.943ZM25.6 18.573c-.526 0-1.04-.154-1.478-.442a2.635 2.635 0 0 1-.98-1.18 2.598 2.598 0 0 1 .577-2.863 2.69 2.69 0 0 1 2.899-.57c.486.2.902.536 1.194.968a2.605 2.605 0 0 1-.331 3.318 2.676 2.676 0 0 1-1.881.77Z" fill="#69B7FF"/></svg>