<svg width="53" height="40" fill="none" xmlns="http://www.w3.org/2000/svg"><g clip-path="url(#a)"><mask id="b" style="mask-type:luminance" maskUnits="userSpaceOnUse" x="0" y="0" width="53" height="40"><path d="M53 0H0v40h53V0Z" fill="#fff"/></mask><g mask="url(#b)" stroke="#B5C5E8"><path d="M14.715 4.586h.047c2.585.012 4.961 1.012 6.702 2.812 1.788 1.85 2.788 4.45 2.788 7.338 0 7.78-3.353 12.455-6.148 15.006-3.395 3.101-7.08 4.187-8.638 4.187a.381.381 0 0 1-.215-.701c2.123-1.41 4.086-3.413 5.39-5.506.622-1 .971-1.816 1.15-2.434.09-.31.14-.574.157-.79.016-.2.011-.412-.052-.583l-.104-.282-.298-.04a.931.931 0 0 0-.125-.008c-3.195 0-5.808-.98-7.603-2.784a8.567 8.567 0 0 1-1.941-3.032c-.428-1.127-.647-2.366-.647-3.684 0-2.537.99-4.92 2.793-6.716a9.489 9.489 0 0 1 6.744-2.783Zm24.28 19.504a.437.437 0 0 0-.058-.004m6.15-16.631-.054-.055c-1.752-1.812-4.146-2.813-6.75-2.813-2.55 0-4.943.988-6.744 2.783a9.415 9.415 0 0 0-2.793 6.717c0 1.317.22 2.556.647 3.683a8.566 8.566 0 0 0 1.94 3.032c1.796 1.804 4.41 2.784 7.604 2.784.04 0 .083.002.126.008l.297.04.104.282c.064.172.069.383.052.583a4.082 4.082 0 0 1-.156.79c-.18.618-.528 1.435-1.151 2.435-1.304 2.093-3.267 4.096-5.39 5.506a.381.381 0 0 0 .215.7c1.56 0 5.243-1.085 8.638-4.186 2.795-2.552 6.148-7.226 6.148-15.007 0-2.86-.98-5.437-2.734-7.282Z"/></g></g><defs><clipPath id="a"><path fill="#fff" d="M0 0h53v40H0z"/></clipPath></defs></svg>