<svg xmlns="http://www.w3.org/2000/svg" width="62" height="84" fill="none"><path fill="#557CE2" d="M31 1.926c-15.728 0-28.448 13.219-28.448 29.562 0 6.57 3.084 13.62 5.397 17.545C13.114 58.006 29.38 81.08 29.38 81.08c.925 1.282 2.313 1.282 3.238 0 0 0 16.267-23.073 21.432-32.046 2.313-3.925 5.397-10.976 5.397-17.545 0-16.343-12.72-29.562-28.448-29.562Zm0 41.499c-6.399 0-11.564-5.368-11.564-12.017 0-6.65 5.165-12.017 11.564-12.017 6.398 0 11.563 5.367 11.563 12.017 0 6.649-5.165 12.017-11.563 12.017Z"/></svg>