<svg width="32" height="32" fill="none" xmlns="http://www.w3.org/2000/svg"><g clip-path="url(#a)"><path d="M16 32c8.837 0 16-7.163 16-16S24.837 0 16 0 0 7.163 0 16s7.163 16 16 16Z" fill="#E21A20"/><path fill-rule="evenodd" clip-rule="evenodd" d="M24.657 13.48c-.123-1.687-.43-3.43-2.588-3.557a106.83 106.83 0 0 0-12.137 0c-2.158.125-2.465 1.87-2.588 3.557a33.751 33.751 0 0 0 0 5.04c.123 1.688.43 3.43 2.588 3.558 4.042.23 8.095.23 12.137 0 2.158-.125 2.465-1.87 2.588-3.558a33.754 33.754 0 0 0 0-5.04Zm-10.405 4.77v-5l4.75 2.5-4.75 2.5Z" fill="#fff"/></g><defs><clipPath id="a"><path fill="#fff" d="M0 0h32v32H0z"/></clipPath></defs></svg>