<svg width="31" height="29" fill="none" xmlns="http://www.w3.org/2000/svg"><path d="M26.722 8.36h-4.309V5.299a.913.913 0 0 0-.272-.65.936.936 0 0 0-.658-.269H3.939c-.78 0-1.53.307-2.082.853a2.892 2.892 0 0 0-.863 2.057v16.047c0 .771.31 1.511.863 2.057a2.963 2.963 0 0 0 2.082.852h22.783a.936.936 0 0 0 .658-.27.913.913 0 0 0 .272-.649V9.28a.913.913 0 0 0-.272-.65.936.936 0 0 0-.658-.268ZM2.823 7.29c0-.285.115-.557.318-.758.204-.201.48-.314.767-.314h16.645V8.36H3.939a1.097 1.097 0 0 1-.787-.303 1.071 1.071 0 0 1-.329-.77ZM21.7 19.232a2.19 2.19 0 0 1-1.206-.361 2.15 2.15 0 0 1-.799-.962 2.12 2.12 0 0 1 .47-2.336 2.194 2.194 0 0 1 2.365-.465c.397.162.736.437.974.79a2.126 2.126 0 0 1-.27 2.706 2.183 2.183 0 0 1-1.534.628Z" fill="#80A3FF"/></svg>