<svg xmlns="http://www.w3.org/2000/svg" viewBox="0 0 60 60" fill="#fff"><path d="M36.5 22h-25a1 1 0 1 0 0 2h25a1 1 0 1 0 0-2zm-25-6h10a1 1 0 1 0 0-2h-10a1 1 0 1 0 0 2zm26 15a1 1 0 0 0-1-1h-25a1 1 0 1 0 0 2h25a1 1 0 0 0 1-1zm-8 8a1 1 0 0 0-1-1h-17a1 1 0 1 0 0 2h17a1 1 0 0 0 1-1zm-18 7a1 1 0 1 0 0 2h14a1 1 0 1 0 0-2h-14z"/><path d="M2.5 2h29v14h14v14h2V14.586L32.914 0H.5v60h35v-2h-33V2zm31 1.414L44.086 14H33.5V3.414z"/><path d="M57.699 48.02a.998.998 0 0 0-1.18.781C55.403 54.303 51.074 58 45.749 58c-5.029 0-9.447-3.3-10.948-8H39.5v-2h-8v8h2v-3.848C35.668 56.833 40.415 60 45.749 60c6.304 0 11.42-4.341 12.731-10.801a1 1 0 0 0-.781-1.179zM57.5 36v4.308C55.25 35.855 50.796 33 45.749 33c-6.109 0-11.541 3.997-13.209 9.72a1 1 0 0 0 1.92.56C35.858 38.482 40.605 35 45.749 35c4.565 0 8.561 2.765 10.33 7H51.5v2h8v-8h-2z"/></svg>