<svg width="27" height="27" fill="none" xmlns="http://www.w3.org/2000/svg"><g clip-path="url(#a)"><circle cx="10.675" cy="10.675" r="9.904" transform="matrix(-1 0 0 1 25.877 1.286)" stroke="#fff" stroke-width="1.543"/><path d="M.154 24.936a1.688 1.688 0 1 0 3.376 0 1.688 1.688 0 0 0-3.376 0Z" fill="#fff"/><path d="M8.144 18.521.829 23.585l2.363 2.364 5.965-6.415-1.013-1.013ZM15.91 16.836a.772.772 0 0 1-.483.717.787.787 0 0 1-.852-.168.774.774 0 0 1 .553-1.324c.207 0 .405.081.552.227a.774.774 0 0 1 .23.548Zm2.308-8.882a3.49 3.49 0 0 0-1.07-1.201 3.523 3.523 0 0 0-3.109-.467 3.513 3.513 0 0 0-2.227 2.153.668.668 0 0 0 .091.618.725.725 0 0 0 .7.303.729.729 0 0 0 .586-.486 2.078 2.078 0 0 1 2.726-1.172c.375.152.698.412.926.745a2.049 2.049 0 0 1-.873 3.042 2.64 2.64 0 0 0-1.14.973 2.612 2.612 0 0 0-.421 1.432v.221a.71.71 0 0 0 .444.667.726.726 0 0 0 .945-.391.712.712 0 0 0 .053-.276v-.22a1.203 1.203 0 0 1 .708-1.1 3.16 3.16 0 0 0 1.461-1.137 3.576 3.576 0 0 0 .2-3.704Z" fill="#fff"/></g><defs><clipPath id="a"><path fill="#fff" transform="matrix(-1 0 0 1 26 0)" d="M0 0h26v26.907H0z"/></clipPath></defs></svg>