<svg width="39" height="39" fill="none" xmlns="http://www.w3.org/2000/svg"><path d="M28.527 28.795a16.298 16.298 0 0 1-9.6 3.323c-11.315 0-17.78-12.905-17.78-12.905 2.01-3.739 4.8-7.006 8.179-9.581m6.206-2.936c1.113-.26 2.252-.39 3.395-.387 11.314 0 17.779 12.904 17.779 12.904a29.837 29.837 0 0 1-3.491 5.146m-10.862-1.726a4.848 4.848 0 0 1-3.462 1.54 4.859 4.859 0 0 1-3.514-1.417 4.84 4.84 0 0 1-1.42-3.507 4.832 4.832 0 0 1 1.543-3.455M1.147 1.147l35.559 35.559" stroke="#FFFCF6" stroke-width="2.294" stroke-linecap="round" stroke-linejoin="round"/></svg>