<svg width="18" height="18" fill="none" xmlns="http://www.w3.org/2000/svg"><path d="M16.244 7.044 10.17 1.607a1.679 1.679 0 0 0-2.323-.013l-6.09 5.45c-.525.47-.703 1.2-.45 1.86.251.659.87 1.085 1.576 1.085h.23v5.19c0 .93.757 1.688 1.687 1.688h1.95v.008h4.5v-.008h1.952a1.69 1.69 0 0 0 1.687-1.688V9.99h.23c.706 0 1.325-.426 1.576-1.085.253-.66.075-1.39-.45-1.86Zm-6.118 8.698h-2.25v-3.367c0-.31.252-.562.562-.562h1.125c.31 0 .563.252.563.562v3.367Zm5.519-7.24a.549.549 0 0 1-.526.362h-.792a.563.563 0 0 0-.563.562v5.753c0 .31-.252.563-.562.563H11.25v-3.367a1.69 1.69 0 0 0-1.688-1.687H8.438a1.69 1.69 0 0 0-1.688 1.687v3.367H4.8a.563.563 0 0 1-.563-.563V9.426a.563.563 0 0 0-.563-.562h-.792a.55.55 0 0 1-.526-.362.55.55 0 0 1 .151-.62l6.104-5.463a.552.552 0 0 1 .385-.156.59.59 0 0 1 .409.17l6.09 5.449a.55.55 0 0 1 .15.62Z" fill="#767A93"/></svg>