<svg width="59" height="59" fill="none" xmlns="http://www.w3.org/2000/svg"><g clip-path="url(#a)"><path d="M38.706 20.58c-3.5 0-6.853.73-9.29 2.82-2.438-2.09-5.791-2.82-9.29-2.82-8.154-.002-17.1 3.97-17.1 3.97S6.89 44.136 29.416 44.4c22.526-.263 26.388-19.85 26.388-19.85s-8.945-3.97-17.098-3.97ZM8.723 26.87l-.338 1.736c-.74-.514-2.116-2.026-2.844-2.58.71.148 2.427.69 3.182.845Zm1.159.344c.234.047 1.31.198 1.545.245.896.179 2.017.412 2.851.575l-.256 3.372a45.99 45.99 0 0 1-.82-.448c-.823-.46-2.835-1.462-3.663-1.985l.343-1.76Zm5.617 1.048c1.596.302 4.454.846 5.79 1.08l.02 5.272c-1.442-.479-5.21-1.571-6.167-2.949l.357-3.403Zm7.32 1.31c2.356.384 4.857.723 6.163.826l-.043 5.437c-1.772-.085-4.235-.418-6.12-.903v-5.36Zm7.696.753c1.314-.08 3.15-.308 5.498-.68v5.286c-1.886.486-3.85.604-5.622.689l.124-5.295Zm6.696-.773c1.337-.231 3.804-.773 5.399-1.078v4.039c-1.485.699-3.923 1.597-5.363 2.076l-.036-5.037Zm6.823-1.49c.886-.175 2.583-.376 3.54-.57l.534-.11v2.097a53.635 53.635 0 0 1-2.48 1.479c-.274.153-1.315.882-1.586 1.027l-.008-3.923Zm5.208-.963c.726-.152 3.654-.708 4.339-.854-.7.531-3.513 2.315-4.225 2.81l-.114-1.956ZM27.9 24.408l1.42.749 1.43-.907c1.768-1.517 4.51-2.25 7.934-2.25 3.286-.03 10.623 1.337 14.28 2.664-8.072 2.063-19.483 4.2-22.925 4.2-.046 0-1.015-.079-1.463-.089-3.66-.083-14.633-1.61-22.601-3.96 3.148-.993 9.195-2.721 13.215-2.721 3.425 0 6.941.797 8.71 2.314Zm14.59 15.537c-3.576 1.897-8.086 3.06-12.847 3.119-4.719-.06-9.801-.93-13.602-3.438-2.835-1.486-5.11-3.36-7.12-5.943-.899-1.155-2.593-4.356-3.172-5.417 6.382 4.403 16.406 9.16 24.203 9.16 7.8 0 16.975-5.163 23.36-9.568-.567 1.036-2.675 4.757-3.525 5.864-2.007 2.615-4.453 4.713-7.297 6.223Z" fill="#557CE2"/></g><defs><clipPath id="a"><path fill="#fff" transform="translate(3 3)" d="M0 0h53v53H0z"/></clipPath></defs></svg>