<svg width="32" height="32" fill="none" xmlns="http://www.w3.org/2000/svg"><rect width="32" height="32" rx="16" fill="#2FA7D9"/><path d="M23.533 8.49c-.285-.241-.733-.276-1.196-.09-.487.195-13.78 5.897-14.32 6.13-.099.034-.959.354-.87 1.069.079.644.77.91.854.942l3.38 1.157c.224.746 1.05 3.5 1.233 4.088.114.366.3.848.626.947.285.11.57.01.753-.134l2.066-1.917 3.336 2.601.08.048c.226.1.443.15.65.15.16 0 .313-.03.46-.09.5-.205.7-.681.72-.735l2.492-12.95c.152-.691-.06-1.043-.264-1.216Zm-9.172 9.67-1.14 3.04-1.14-3.8 8.74-6.46-6.46 7.22Z" fill="#fff"/></svg>