<svg width="41" height="41" fill="none" xmlns="http://www.w3.org/2000/svg"><g clip-path="url(#a)"><path d="M26.1 17.03c-2.424.39-4.66 1.276-6.105 3.02-1.93-1.202-4.335-1.345-6.757-.957-5.644.905-11.377 4.694-11.377 4.694s4.943 13.365 20.565 11.05c15.563-2.686 15.969-16.909 15.969-16.909s-6.652-1.802-12.296-.897ZM6.072 24.79l-.033 1.26c-.572-.28-1.699-1.192-2.267-1.502.509.026 1.76.217 2.3.242Zm.842.113c.168.007.93-.006 1.098.001.64.026 1.444.066 2.04.088l.213 2.403a31.973 31.973 0 0 1-.619-.224c-.623-.233-2.132-.715-2.765-.992l.033-1.276Zm4.01.114c1.14.036 3.181.102 4.132.118l.625 3.71c-1.053-.177-3.788-.528-4.61-1.392l-.147-2.436Zm5.218.11c1.676.01 3.447-.03 4.362-.102l.6 3.833c-1.236.137-2.98.176-4.341.044l-.621-3.774Zm5.415-.323c.9-.203 2.144-.567 3.727-1.09l.612 3.723c-1.25.551-2.595.852-3.812 1.108l-.527-3.742Zm4.546-1.288c.898-.312 2.543-.967 3.612-1.359l.467 2.844c-.947.657-2.53 1.56-3.471 2.058l-.608-3.543Zm4.55-1.807c.593-.222 1.744-.552 2.384-.795l.358-.136.242 1.476c-.512.46-1.028.901-1.545 1.317-.172.138-.809.767-.98.9l-.459-2.762Zm3.494-1.257c.485-.187 2.447-.904 2.904-1.082-.422.451-2.164 2.02-2.599 2.447l-.306-1.365Zm-15.086.475 1.07.37.884-.798c1.049-1.264 2.861-2.085 5.232-2.465 2.271-.386 7.508-.238 10.193.29-5.349 2.35-13 5.122-15.382 5.504-.032.005-.712.057-1.023.1-2.544.347-10.316.49-16.104-.28 2.064-1.05 6.05-2.938 8.833-3.384 2.37-.38 4.897-.209 6.297.663Zm11.9 9.32c-2.256 1.734-5.243 3.053-8.532 3.623-3.273.483-6.892.434-9.813-.91A15.001 15.001 0 0 1 7 29.565c-.756-.714-2.3-2.78-2.823-3.463 4.927 2.392 12.417 4.63 17.814 3.764 5.4-.866 11.153-5.52 15.062-9.33-.272.791-1.3 3.646-1.761 4.52-1.086 2.064-2.536 3.813-4.33 5.192Z" fill="#2E4789"/></g><path d="m30.888 8.378-.864.138a3.066 3.066 0 0 1-2.54 3.508l.138.864a3.066 3.066 0 0 1 3.508 2.54l.864-.138a3.066 3.066 0 0 1 2.54-3.508l-.138-.864a3.066 3.066 0 0 1-3.508-2.54Zm.39 5.208a3.957 3.957 0 0 0-1.952-1.414 3.957 3.957 0 0 0 1.414-1.952 3.956 3.956 0 0 0 1.952 1.414 3.957 3.957 0 0 0-1.414 1.952Z" fill="#2E4789"/><defs><clipPath id="a"><path fill="#fff" transform="rotate(-2.301 274.364 -19.397)" d="M0 0h38v27H0z"/></clipPath></defs></svg>