<svg width="45" height="47" fill="none" xmlns="http://www.w3.org/2000/svg"><g clip-path="url(#a)" fill="#557CE2"><path d="M44.946 22.058a3.12 3.12 0 0 0-1.551-2.712c1.018-.592 1.648-1.776 1.503-3.108-.194-1.627-1.697-2.761-3.297-2.761h-9.938c.097-.197.194-.494.29-.74.582-1.529 1.746-4.39 1.746-7.349 0-3.304-2.279-5.277-3.83-5.375-1.018-.05-1.745.542-1.89 1.676-.291 2.072-1.649 5.13-2.182 6.313-.146.346-.388.69-.63.987-.922 1.085-3.249 3.698-5.43 5.227V26.25c3.781 2.022 6.302 5.475 6.302 9.322v.295c1.503.198 3.006.296 4.557.296h8.533c1.503 0 2.86-.986 3.15-2.466a3.27 3.27 0 0 0-.969-3.057 3.158 3.158 0 0 0 2.376-3.058c0-.937-.388-1.776-1.066-2.367a3.291 3.291 0 0 0 2.326-3.157Zm-27.924 3.008V14.463c0-.938-.776-1.727-1.697-1.727h-6.69c-.921 0-1.697.79-1.697 1.727v10.456c1.503-.395 3.103-.642 4.75-.642 1.892 0 3.686.296 5.334.79Zm-5.333 1.875c-6.4 0-11.635 3.896-11.635 8.631 0 2.565 1.502 4.932 4.169 6.61-.145.739-.775 1.972-1.6 3.205a.995.995 0 0 0 0 1.035c.194.247.436.395.776.395h.194c1.939-.444 4.217-1.134 6.4-2.811.63.049 1.163.099 1.696.099 6.448 0 11.684-3.847 11.684-8.582 0-4.685-5.236-8.582-11.684-8.582Zm4.654 8.138-1.697 1.578c-.097.1-.146.247-.146.444l.485 2.269c.146.592-.533 1.085-1.018.79l-1.988-1.135a.358.358 0 0 0-.436 0l-1.988 1.134c-.533.296-1.163-.148-1.018-.789l.436-2.269c.049-.148 0-.296-.145-.444L7.13 35.08c-.436-.395-.194-1.184.388-1.233l2.278-.247a.365.365 0 0 0 .34-.246l.97-2.12c.242-.543 1.018-.543 1.309 0l.969 2.12a.365.365 0 0 0 .34.246l2.278.247c.534.05.776.79.34 1.233Z"/></g><defs><clipPath id="a"><path fill="#fff" d="M0 0h45v47H0z"/></clipPath></defs></svg>