<svg width="43" height="30" fill="none" xmlns="http://www.w3.org/2000/svg"><g clip-path="url(#a)"><g clip-path="url(#b)"><path d="M10.457.652c-2.593 0-5.224 1.01-7.057 2.842C2.33 4.564.422 7.424.78 11.355c.143 1.576.194 1.747.437 2.62.45 1.191 1.048 2.35 2.183 3.494 1.135 1.144 4.804 2.62 6.114 2.62h.437c.187-.002-.56 1.327-1.31 2.184-3.057 3.494-3.494 3.058-4.367 3.931-.542.541-.68.873-.68 1.747 0 .873.874 1.747 1.747 1.747 1.651 0 5.241-1.31 8.735-4.367 2.784-2.551 6.114-7.14 6.114-14.85-.194-3.056-1.034-5.058-2.86-6.952C15.544 1.674 13.103.652 10.458.652Z" fill="#B5C5E8"/><path d="M10.485 1.747a8.58 8.58 0 0 0-6.108 2.53 8.577 8.577 0 0 0-2.53 6.105c0 1.186.197 2.308.585 3.334.4 1.06.995 1.991 1.768 2.77 1.643 1.656 4.01 2.531 6.848 2.531.021 0 .038.001.05.003.086.234-.004 1.237-1.042 2.91-1.089 1.753-2.733 3.438-4.511 4.623-.28.186-.64.525-.64.961 0 .874.537.874.873.874 1.47 0 4.929-1.43 7.914-4.167 2.477-2.27 5.43-6.416 5.43-13.277 0-2.594-.895-4.95-2.52-6.637-1.59-1.65-3.763-2.56-6.117-2.56Z" fill="#fff"/><path d="M32.531.652c-2.592 0-5.224 1.01-7.056 2.842-1.07 1.07-2.978 3.93-2.62 7.861.143 1.576.193 1.747.436 2.62.45 1.191 1.049 2.35 2.184 3.494 1.135 1.144 4.804 2.62 6.114 2.62h.437c.186-.002-.56 1.327-1.31 2.184-3.058 3.494-3.494 3.058-4.368 3.931-.541.541-.68.873-.68 1.747 0 .873.874 1.747 1.748 1.747 1.65 0 5.24-1.31 8.734-4.367 2.784-2.551 6.114-7.14 6.114-14.85-.194-3.056-1.033-5.058-2.859-6.952C37.618 1.674 35.176.652 32.531.652Z" fill="#B5C5E8"/><path d="M32.56 1.747a8.58 8.58 0 0 0-6.108 2.53 8.577 8.577 0 0 0-2.53 6.105c0 1.186.197 2.308.585 3.334a7.83 7.83 0 0 0 1.767 2.77c1.643 1.656 4.011 2.531 6.848 2.531.022 0 .038.001.05.003.086.234-.003 1.237-1.042 2.91-1.088 1.753-2.733 3.438-4.511 4.623-.28.186-.64.525-.64.961 0 .874.537.874.873.874 1.47 0 4.93-1.43 7.914-4.167 2.478-2.27 5.43-6.416 5.43-13.277 0-2.594-.894-4.95-2.519-6.637-1.59-1.65-3.764-2.56-6.117-2.56Z" fill="#fff"/></g></g><defs><clipPath id="a"><path fill="#fff" d="M0 0h43v30H0z"/></clipPath><clipPath id="b"><path fill="#fff" transform="translate(.1)" d="M0 0h42.8v30.571H0z"/></clipPath></defs></svg>