<svg xmlns="http://www.w3.org/2000/svg" width="51" height="46" fill="none"><path d="M49.521 12.105c-.867-2.182-4.437-2.961-9.537-2.494l.46.78c2.345 0 3.875.52 4.334 1.61 1.173 2.962-6.783 9.144-17.799 13.768-11.016 4.623-20.91 5.974-22.134 2.961-.612-1.559 1.275-4.052 4.845-6.65-.102-.208-.153-.416-.255-.623C3.621 25.509.408 29.613 1.48 32.263c1.02 2.494 5.61 3.169 11.934 2.182 0 1.61.102 2.961.306 4.156.357 2.546 1.48 4.26 1.99 4.832l.05.052c.561.571 1.48.26 1.632-.52.46-2.234 1.48-6.806 3.111-10.13 2.295-.676 4.641-1.507 7.09-2.443 2.55 3.118 4.08 9.716 4.64 12.625.153.78 1.071 1.091 1.632.52v-.052c.51-.572 1.632-2.286 1.99-4.832.254-1.766.305-3.74.254-6.39-.102-3.117 0-4.052.102-4.52.102-.468.204-1.04.408-1.61 8.772-5.092 14.23-10.703 12.903-14.028Z" fill="#fff"/><path d="M11.68 22.911c.866 1.922 1.427 3.43 1.631 4.676.051.208.102.572.102 1.195 3.825-.675 8.415-2.078 13.107-4.052 5.253-2.182 9.945-4.832 13.26-7.378a10 10 0 0 0 0-4.26v-.052c-.51-2.442-1.632-4.156-3.62-4.624-9.232-2.13-16.32 7.066-16.32 7.066s1.325-3.533 4.64-5.507c-.969-.208-4.284-.883-5.61-1.299-2.244-.675-4.13-.78-5.508-.312-1.938.676-3.11 2.182-3.62 4.624-.358 1.559-.358 3.117.05 4.676.408 1.766 1.071 3.533 1.887 5.247Z" fill="#fff"/></svg>