<svg width="86" height="89" fill="none" xmlns="http://www.w3.org/2000/svg"><circle cx="35.31" cy="35.31" r="32.758" transform="matrix(-1 0 0 1 85.594 4.254)" stroke="#557CE2" stroke-width="5.105"/><path d="M.508 82.48a5.584 5.584 0 1 0 11.168 0 5.584 5.584 0 0 0-11.168 0Z" fill="#557CE2"/><path d="M26.938 61.262 2.742 78.012l7.817 7.818 19.73-21.218-3.351-3.35ZM52.622 55.689c0 .507-.152 1.003-.436 1.425a2.58 2.58 0 0 1-1.16.945 2.601 2.601 0 0 1-2.816-.556 2.548 2.548 0 0 1-.56-2.796 2.57 2.57 0 0 1 .952-1.151 2.598 2.598 0 0 1 3.262.32c.485.48.757 1.133.758 1.813Zm7.636-29.378a11.548 11.548 0 0 0-3.538-3.975 11.685 11.685 0 0 0-10.282-1.544 11.619 11.619 0 0 0-4.565 2.758 11.405 11.405 0 0 0-2.803 4.362 2.21 2.21 0 0 0 .301 2.045 2.415 2.415 0 0 0 3.514.472c.342-.284.598-.657.739-1.077a6.75 6.75 0 0 1 1.6-2.427 6.874 6.874 0 0 1 3.488-1.831 6.905 6.905 0 0 1 3.927.38 6.85 6.85 0 0 1 3.067 2.466 6.775 6.775 0 0 1 .109 7.507 6.84 6.84 0 0 1-2.999 2.554 8.733 8.733 0 0 0-3.77 3.219 8.641 8.641 0 0 0-1.394 4.738v.73a2.353 2.353 0 0 0 .692 1.687 2.389 2.389 0 0 0 1.694.7 2.401 2.401 0 0 0 1.693-.7 2.366 2.366 0 0 0 .692-1.686v-.731c0-.765.22-1.513.635-2.157a4.02 4.02 0 0 1 1.706-1.477 10.453 10.453 0 0 0 4.834-3.763 11.815 11.815 0 0 0 .66-12.25Z" fill="#557CE2"/></svg>