<svg width="43" height="43" fill="none" xmlns="http://www.w3.org/2000/svg"><g clip-path="url(#a)"><path d="M34.296 15.313h-3.508l-.975-2.438a6.53 6.53 0 0 0-6.092-4.125h-7.442a6.531 6.531 0 0 0-6.093 4.125l-.975 2.438H5.703a.703.703 0 0 0-.682.873l.352 1.406c.078.313.36.533.682.533h1.176a3.724 3.724 0 0 0-1.294 2.813v2.812c0 .945.361 1.797.938 2.457v3.168c0 1.035.84 1.875 1.875 1.875h1.875c1.035 0 1.875-.84 1.875-1.875V27.5h15v1.875c0 1.035.84 1.875 1.875 1.875h1.875c1.035 0 1.875-.84 1.875-1.875v-3.168c.576-.66.937-1.512.937-2.457v-2.813a3.725 3.725 0 0 0-1.293-2.812h1.176c.323 0 .604-.22.682-.533l.352-1.406a.704.704 0 0 0-.683-.873Zm-20.628-1.045a2.813 2.813 0 0 1 2.611-1.768h7.442c1.15 0 2.184.7 2.611 1.768l1.168 2.92h-15l1.168-2.92Zm-3.043 9.47c-1.125 0-1.875-.747-1.875-1.869 0-1.121.75-1.869 1.875-1.869s2.812 1.682 2.812 2.804c0 1.121-1.687.934-2.812.934Zm18.75 0c-1.125 0-2.813.187-2.813-.934 0-1.122 1.688-2.804 2.813-2.804 1.125 0 1.875.748 1.875 1.87 0 1.12-.75 1.868-1.875 1.868Z" fill="#fff"/></g><defs><clipPath id="a"><path fill="#fff" transform="translate(6 6)" d="M0 0h30v30H0z"/></clipPath></defs></svg>