<svg width="112" height="109" fill="none" xmlns="http://www.w3.org/2000/svg"><path d="M100.099 55.458a12.894 12.894 0 0 1-2.278 13.029L77.192 92.409a12.893 12.893 0 0 1-11.984 4.281l-32.685-5.713a12.893 12.893 0 0 1-9.82-8.092L11.41 53.383a12.893 12.893 0 0 1 2.277-13.028l20.63-23.923a12.893 12.893 0 0 1 11.983-4.28l32.685 5.713c4.47.78 8.2 3.854 9.821 8.091L100.1 55.459Z" fill="url(#a)"/><path d="m47.765 66.4-4.33-.742 21.729-25.639 4.33.743-21.729 25.639Zm-2.034-12.178c-2.293-.394-3.952-1.484-4.979-3.27-1.026-1.787-1.308-4.03-.845-6.727.468-2.725 1.48-4.745 3.04-6.06 1.585-1.31 3.51-1.772 5.777-1.383 2.293.393 3.953 1.484 4.979 3.27 1.026 1.787 1.31 4.016.852 6.686-.463 2.698-1.476 4.718-3.04 6.06-1.563 1.343-3.49 1.817-5.784 1.424Zm.556-3.237c.998.171 1.843-.142 2.535-.94.72-.793 1.241-2.133 1.565-4.022.329-1.915.282-3.34-.141-4.273-.392-.956-1.086-1.52-2.085-1.69-.998-.172-1.852.112-2.562.851-.683.744-1.19 2.087-1.524 4.03-.333 1.941-.304 3.39.087 4.346.419.96 1.127 1.526 2.125 1.698Zm17.918 18.653c-2.293-.393-3.952-1.483-4.979-3.27-1.021-1.814-1.301-4.07-.838-6.767.467-2.725 1.478-4.731 3.032-6.02 1.586-1.31 3.512-1.771 5.778-1.383 2.293.394 3.952 1.484 4.979 3.27 1.03 1.76 1.317 3.976.859 6.646-.463 2.698-1.478 4.732-3.046 6.1-1.564 1.343-3.492 1.818-5.785 1.424Zm.563-3.277c.998.171 1.84-.129 2.528-.9.72-.792 1.243-2.146 1.572-4.062.329-1.915.282-3.34-.141-4.273-.392-.956-1.087-1.52-2.085-1.69-.998-.172-1.854.126-2.569.892-.683.743-1.189 2.073-1.517 3.988-.334 1.942-.304 3.391.087 4.347.418.96 1.127 1.526 2.125 1.698Z" fill="#fff"/><defs><linearGradient id="a" x1="13.249" y1="19.916" x2="7.309" y2="84.72" gradientUnits="userSpaceOnUse"><stop stop-color="#FC9A53"/><stop offset="1" stop-color="#FCAE53"/></linearGradient></defs></svg>