<svg width="28" height="28" fill="none" xmlns="http://www.w3.org/2000/svg"><path fill-rule="evenodd" clip-rule="evenodd" d="M22.131 4.269a2.626 2.626 0 0 0-3.712 0L5.655 17.032a4.375 4.375 0 0 0 6.188 6.187l8.976-8.975a.875.875 0 0 1 1.236 1.236l-8.975 8.976a6.125 6.125 0 1 1-8.661-8.662L17.18 3.031a4.375 4.375 0 1 1 6.187 6.188L10.613 21.974l-.01.01-.008.008-.002.002-.004.002a2.625 2.625 0 0 1-3.695-3.726l9.112-9.112a.875.875 0 0 1 1.238 1.237l-9.112 9.112a.875.875 0 0 0 1.23 1.246L22.132 7.98a2.625 2.625 0 0 0 0-3.711Z" fill="#fff"/></svg>