<svg width="32" height="32" fill="none" xmlns="http://www.w3.org/2000/svg"><rect width="32" height="32" rx="16" fill="#2687F5"/><path d="M25.972 21.134c-.823-1.482-2.945-3.264-3.82-4.039a.57.57 0 0 1-.048-.814c1.672-1.796 3.008-3.86 3.469-5.107.203-.55-.218-1.133-.81-1.133h-1.72c-.567 0-.899.204-1.057.528-1.39 2.846-2.58 4.079-3.415 4.798a.724.724 0 0 1-1.195-.544v-3.795a.955.955 0 0 0-.96-.951l-3.143-.036a.476.476 0 0 0-.384.762l.519.745c.195.258.3.572.3.894l-.002 3.354c0 .584-.707.869-1.127.46-1.42-1.383-2.653-4.208-3.097-5.559a.957.957 0 0 0-.91-.656l-1.694-.004a.956.956 0 0 0-.928 1.21C7.5 16.68 10.675 21.85 16.337 22.412a.954.954 0 0 0 1.039-.95v-1.763c0-.506.396-.94.906-.953h.053c1.498 0 3.175 2.179 3.762 3.198a.95.95 0 0 0 .825.472H25.2c.665 0 1.092-.705.771-1.282Z" fill="#fff"/></svg>