<svg width="32" height="46" fill="none" xmlns="http://www.w3.org/2000/svg"><g clip-path="url(#a)"><path d="m21.448 39.073-.233 1.387c-.182 1.074-.618 1.666-1.285 2.076-.67.41-1.642.617-2.852.617-1.207 0-2.197-.14-2.811-.617-.87-.668-1.178-1.4-1.363-2.214l8.544-1.25Zm1.567-3.5c.36-.051.733.218.8.762.067.549-.267.962-.626 1.013l-12.074 1.767c-.36.051-.73-.214-.797-.761-.066-.549.263-.966.622-1.02l12.075-1.761Zm-.666-3.227-.245 1.894-9.866 1.441-.255-2 10.366-1.335Zm2.493-2.682c0 .507-.271.936-.786 1.005l-13.7 1.765a.91.91 0 0 1-1.036-.781c-.067-.501.266-.93.78-.994l13.709-1.765c.633-.083 1.033.334 1.033.77Zm-13.908-3.761h12.285l-.244 1.632-11.597 1.492-.444-3.124ZM9.13 21.65c.1.004.2.012.3.012h15.296c.104 0 .204-.008.3-.012v1.22c0 .89-.704 1.586-1.615 1.586H10.748c-.91 0-1.618-.697-1.618-1.586v-1.22ZM9.867 1.44c2.092 0 3.349.625 4.797 1.45 1.804 1.027 3.796 1.938 5.68 2.152.976.142 1.19-1.296.216-1.437-.948-.134-1.688-.331-2.273-.57.529-.174 1.318-.47 1.807-.665 1.23-.486 2.429-.929 4.195-.929 2.467 0 4.478 1.706 5.556 4.258 1.078 2.553 1.131 5.885-.38 8.85-.804 1.55-1.238 2.56-1.77 3.463-.401.675-.727 1.245-1.134 1.608-.407.366-.882.598-1.834.598H9.43c-.948 0-1.422-.232-1.829-.598-.408-.363-.738-.933-1.138-1.608-.533-.903-.966-1.913-1.766-3.463-1.515-2.965-1.46-6.298-.386-8.85 1.08-2.553 3.09-4.259 5.556-4.259Zm0-1.447c-3.163 0-5.677 2.207-6.919 5.151-1.244 2.944-1.292 6.69-.04 9.13 1.248 2.442 1.678 3.452 2.278 4.465.386.654.762 1.367 1.415 1.952.293.262.645.48 1.052.647v1.535c0 1.19.715 2.215 1.74 2.712l.52 3.634c-1.3.167-2.23 1.357-2.057 2.631.175 1.267 1.37 2.167 2.656 2.022l.262 2.026-.051.007c-1.245.182-2.027 1.387-1.875 2.622.148 1.23 1.238 2.207 2.482 2.024l.145-.021a.664.664 0 0 0 .015.192c.282 1.373.98 2.411 1.986 3.035 1 .624 2.23.846 3.603.846 1.37 0 2.626-.215 3.641-.836 1.012-.624 1.714-1.68 1.952-3.07l.315-1.848.418-.062c1.244-.18 2.03-1.386 1.881-2.616-.12-.956-.8-1.75-1.681-1.978l.262-2.041.382-.046c1.304-.167 2.234-1.358 2.06-2.636-.138-.987-.898-1.742-1.838-1.96l.284-1.92c1.03-.493 1.753-1.521 1.753-2.715v-1.535a3.568 3.568 0 0 0 1.047-.647c.653-.585 1.034-1.3 1.42-1.953.596-1.013 1.025-2.022 2.278-4.465 1.251-2.44 1.2-6.186-.042-9.13-1.245-2.944-3.756-5.15-6.922-5.15-2.026 0-3.496.54-4.748 1.033-1.177.469-2.174.828-3.422.876-.208-.114-.515-.163-.726-.276C13.904.8 12.282-.008 9.867-.008Z" fill="#2E4789"/></g><defs><clipPath id="a"><path fill="#fff" d="M0 0h32v46H0z"/></clipPath></defs></svg>