<svg width="24" height="24" fill="none" xmlns="http://www.w3.org/2000/svg"><g clip-path="url(#a)"><path d="M11.805.411C5.528.411.438 5.501.438 11.778c0 6.278 5.09 11.367 11.367 11.367 6.278 0 11.367-5.09 11.367-11.367 0-6.277-5.09-11.367-11.367-11.367Zm0 4.034c.405 0 .733.328.733.733v6.176l4.71 2.727a.73.73 0 0 1 .275.997.74.74 0 0 1-1.008.264l-5.076-2.934a.726.726 0 0 1-.367-.63v-6.6c0-.405.328-.733.733-.733Z" fill="#557CE2"/></g><defs><clipPath id="a"><path fill="#fff" d="M0 0h24v24H0z"/></clipPath></defs></svg>