<svg xmlns="http://www.w3.org/2000/svg" viewBox="0 0 16 16"><path d="M14.5 7.7c0 1-.1 2-.4 2.7-.1.5-.5 1.2-1 2.1h1.2c.6-.9.9-1.6 1.1-2 .4-.8.6-1.8.6-2.8 0-.4 0-.8-.1-1.3-.1-.4-.2-.9-.4-1.3-.1-.4-.3-.6-.4-.9-.1-.1-.2-.4-.5-.7h-1.2c.3.6.5 1 .6 1.4.4.8.5 1.8.5 2.8zm-13 0c0 1 .1 2 .4 2.7.1.5.5 1.2.9 2.1H1.6c-.6-.9-.9-1.6-1.1-2C.2 9.7 0 8.7 0 7.7c0-.4 0-.8.1-1.3S.3 5.5.5 5c.1-.4.3-.6.4-.9.1-.1.2-.4.5-.7h1.2c-.3.6-.6 1.1-.7 1.4-.3.9-.4 1.9-.4 2.9zm10.6-2.1c0 .4-.1.7-.4.9-.2.2-.5.3-.9.3-.2 0-.4 0-.6-.1-.2 0-.4-.1-.5-.1-.1 0-.2.2-.3.3-.2.2-.3.4-.5.6.2.7.3 1.2.4 1.4l.3.9c.1.2.2.4.3.5.1.1.4.2.7.2.1 0 .3 0 .4-.1.2 0 .3-.1.4-.1l-.1.6c-.4.2-.8.3-1.1.4-.3.1-.6.1-.9.1-.2 0-.4 0-.5-.1-.2 0-.3-.1-.5-.2s-.3-.2-.4-.4c-.1-.1-.2-.3-.3-.6-.1-.2-.1-.3-.1-.6 0-.2-.1-.4-.1-.5-.3.3-.4.5-.4.6l-.3.3c-.4.5-.7.9-.9 1.1-.3.2-.6.3-.9.3-.3 0-.5-.1-.7-.3-.2 0-.3-.3-.3-.6 0-.4.1-.7.4-.9.2-.2.5-.3.9-.3.2 0 .4 0 .6.1.2 0 .4.1.6.1l.3-.3c.1-.1.3-.3.4-.6-.1-.5-.2-1-.3-1.3l-.3-.9c-.1-.2-.2-.4-.4-.5-.1-.2-.3-.2-.6-.2-.1 0-.3 0-.4.1-.2 0-.3.1-.4.1l.1-.6c.4-.2.7-.3 1.1-.4.4-.1.6-.1.9-.1h.6c.2 0 .3.1.5.2.1.1.2.2.3.4.1.1.2.3.3.6.1.1.1.3.2.5 0 .2.1.4.1.5.1-.1.2-.3.3-.4.1-.1.2-.3.3-.4.3-.5.6-.9.9-1.1.3-.2.6-.3.9-.3.3 0 .5.1.7.3.1 0 .2.3.2.6zm0 0"/></svg>