<svg width="140" height="64" fill="none" xmlns="http://www.w3.org/2000/svg"><mask id="a" maskUnits="userSpaceOnUse" x="-.52" y="0" width="141" height="64" fill="#000"><path fill="#fff" d="M-.52 0h141v64h-141z"/><path d="m10.108 62.812-3.822-3.533.951-1.03c-.238-.97-.683-1.926-1.334-2.869-.651-.942-1.558-1.951-2.722-3.027L.48 49.856l6.268-6.78 7.827 7.236 1.376-1.488 3.822 3.533-1.478 1.598-2.388-2.208-6.71 7.258 2.389 2.208-1.478 1.599Zm-1.273-6.254 4.145-4.483-6.413-5.928-3.176 3.436 1.635 1.511A17.024 17.024 0 0 1 7.4 53.8c.687.953 1.166 1.872 1.436 2.759Zm15.941-12.451c-.956.808-1.951 1.31-2.986 1.508a5.434 5.434 0 0 1-3.078-.348c-1.017-.428-1.962-1.159-2.834-2.191-.872-1.032-1.43-2.08-1.672-3.141-.253-1.075-.196-2.106.171-3.093.356-1 1.012-1.904 1.968-2.711.956-.808 1.956-1.304 3.001-1.489 1.048-.207 2.08-.097 3.098.332 1.02.405 1.965 1.124 2.837 2.156.872 1.032 1.428 2.09 1.669 3.176a5.388 5.388 0 0 1-.19 3.11c-.367.986-1.029 1.884-1.984 2.691Zm-1.276-1.51c.84-.71 1.262-1.569 1.264-2.575.001-1.006-.482-2.082-1.451-3.229-.97-1.146-1.945-1.797-2.926-1.95-.992-.166-1.909.106-2.75.817-.828.7-1.243 1.552-1.245 2.559-.012.993.466 2.063 1.435 3.21.97 1.146 1.944 1.808 2.923 1.985.992.166 1.909-.106 2.75-.817Zm14.193-7.314-1.747-1.296c.37-.488.633-.98.787-1.477.159-.52.189-1.078.089-1.677-.086-.607-.297-1.296-.633-2.066-.336-.77-.803-1.666-1.403-2.687L33 23.037l8.2-4.813L47.585 29.1l-2.158 1.267-5.383-9.172-4.035 2.369.823 1.402c.963 1.64 1.631 3.076 2.006 4.307.374 1.231.46 2.332.255 3.303-.198.948-.664 1.85-1.4 2.707ZM57.797 24.11c-1.866.813-3.564.926-5.094.337-1.531-.588-2.703-1.815-3.517-3.68-.526-1.208-.757-2.363-.692-3.466.08-1.108.427-2.088 1.04-2.937.62-.872 1.481-1.547 2.582-2.028 1.086-.473 2.096-.64 3.03-.502.934.139 1.775.545 2.524 1.22.743.659 1.36 1.554 1.854 2.685l.32.734-8.716 3.802-.58-1.33 7.133-3.112-.26.469c-.5-1.147-1.146-1.92-1.94-2.321-.784-.422-1.658-.423-2.622-.003-1.07.467-1.732 1.202-1.987 2.204-.26.988-.108 2.131.46 3.43l.1.23c.593 1.361 1.368 2.242 2.326 2.644.973.394 2.07.325 3.294-.209a6.778 6.778 0 0 0 1.76-1.095 5.746 5.746 0 0 0 1.278-1.704l1.447 1.253c-.328.707-.818 1.358-1.47 1.951a8.653 8.653 0 0 1-2.27 1.427Zm15.613-5.886-1.427-4.666a7.43 7.43 0 0 1-1.26 1.013 6.996 6.996 0 0 1-1.568.69c-1.74.532-3.156.52-4.25-.035-1.084-.575-1.877-1.685-2.38-3.328l-.988-3.23 2.393-.732.93 3.039c.337 1.1.828 1.822 1.474 2.165.646.344 1.503.352 2.572.025a5.8 5.8 0 0 0 1.384-.607c.376-.255.724-.57 1.045-.948l-1.662-5.43 2.416-.74 3.69 12.06-2.368.725Zm13.038-2.395c-2 .371-3.68.098-5.038-.82-1.359-.919-2.224-2.378-2.596-4.38-.24-1.295-.205-2.472.107-3.531.329-1.063.887-1.938 1.675-2.628.802-.709 1.793-1.173 2.974-1.392 1.165-.217 2.186-.152 3.065.194s1.607.931 2.184 1.757c.575.81.975 1.821 1.2 3.035l.147.787-9.349 1.737-.265-1.426 7.651-1.422-.359.397c-.228-1.23-.684-2.13-1.366-2.698-.67-.588-1.52-.786-2.554-.594-1.148.213-1.96.78-2.433 1.699-.477.903-.586 2.051-.327 3.446l.046.246c.271 1.46.828 2.493 1.67 3.1.859.604 1.944.784 3.257.54a6.78 6.78 0 0 0 1.962-.67c.6-.332 1.143-.79 1.629-1.372l1.127 1.547c-.48.615-1.104 1.138-1.872 1.57a8.653 8.653 0 0 1-2.535.878Zm8.914-1.479-.85-12.583 2.498-.169.345 5.118 6.366-.43-.345-5.117L105.872 1l.85 12.583-2.497.168-.371-5.492-6.366.43.37 5.492-2.496.169Zm15.98-.62.665-12.594 2.299.12-.537 10.171-.7-.037 8.133-9.77 2.099.111-.664 12.595-2.274-.12.538-10.196.725.039-8.185 9.792-2.099-.111Zm14.933 1.156 2.524-3.02a4.02 4.02 0 0 1 1.408-1.103c.553-.26 1.084-.348 1.594-.26l.444.076-.067.243c-1.414-.243-2.461-.753-3.14-1.53-.679-.776-.916-1.764-.71-2.965.206-1.2.76-2.061 1.662-2.583.902-.523 2.118-.653 3.647-.39l5.82.999-2.133 12.43-2.293-.394.791-4.612-1.652-.284c-.625-.107-1.186-.042-1.684.194a3.76 3.76 0 0 0-1.272 1.051l-2.176 2.623-2.763-.475Zm6.752-5.315 3.083.529.766-4.464-3.083-.529c-.921-.158-1.645-.08-2.173.236-.512.319-.827.823-.945 1.514-.125.723.001 1.32.378 1.791.395.457 1.053.765 1.974.923Z"/></mask><path d="m10.108 62.812-3.822-3.533.951-1.03c-.238-.97-.683-1.926-1.334-2.869-.651-.942-1.558-1.951-2.722-3.027L.48 49.856l6.268-6.78 7.827 7.236 1.376-1.488 3.822 3.533-1.478 1.598-2.388-2.208-6.71 7.258 2.389 2.208-1.478 1.599Zm-1.273-6.254 4.145-4.483-6.413-5.928-3.176 3.436 1.635 1.511A17.024 17.024 0 0 1 7.4 53.8c.687.953 1.166 1.872 1.436 2.759Zm15.941-12.451c-.956.808-1.951 1.31-2.986 1.508a5.434 5.434 0 0 1-3.078-.348c-1.017-.428-1.962-1.159-2.834-2.191-.872-1.032-1.43-2.08-1.672-3.141-.253-1.075-.196-2.106.171-3.093.356-1 1.012-1.904 1.968-2.711.956-.808 1.956-1.304 3.001-1.489 1.048-.207 2.08-.097 3.098.332 1.02.405 1.965 1.124 2.837 2.156.872 1.032 1.428 2.09 1.669 3.176a5.388 5.388 0 0 1-.19 3.11c-.367.986-1.029 1.884-1.984 2.691Zm-1.276-1.51c.84-.71 1.262-1.569 1.264-2.575.001-1.006-.482-2.082-1.451-3.229-.97-1.146-1.945-1.797-2.926-1.95-.992-.166-1.909.106-2.75.817-.828.7-1.243 1.552-1.245 2.559-.012.993.466 2.063 1.435 3.21.97 1.146 1.944 1.808 2.923 1.985.992.166 1.909-.106 2.75-.817Zm14.193-7.314-1.747-1.296c.37-.488.633-.98.787-1.477.159-.52.189-1.078.089-1.677-.086-.607-.297-1.296-.633-2.066-.336-.77-.803-1.666-1.403-2.687L33 23.037l8.2-4.813L47.585 29.1l-2.158 1.267-5.383-9.172-4.035 2.369.823 1.402c.963 1.64 1.631 3.076 2.006 4.307.374 1.231.46 2.332.255 3.303-.198.948-.664 1.85-1.4 2.707ZM57.797 24.11c-1.866.813-3.564.926-5.094.337-1.531-.588-2.703-1.815-3.517-3.68-.526-1.208-.757-2.363-.692-3.466.08-1.108.427-2.088 1.04-2.937.62-.872 1.481-1.547 2.582-2.028 1.086-.473 2.096-.64 3.03-.502.934.139 1.775.545 2.524 1.22.743.659 1.36 1.554 1.854 2.685l.32.734-8.716 3.802-.58-1.33 7.133-3.112-.26.469c-.5-1.147-1.146-1.92-1.94-2.321-.784-.422-1.658-.423-2.622-.003-1.07.467-1.732 1.202-1.987 2.204-.26.988-.108 2.131.46 3.43l.1.23c.593 1.361 1.368 2.242 2.326 2.644.973.394 2.07.325 3.294-.209a6.778 6.778 0 0 0 1.76-1.095 5.746 5.746 0 0 0 1.278-1.704l1.447 1.253c-.328.707-.818 1.358-1.47 1.951a8.653 8.653 0 0 1-2.27 1.427Zm15.613-5.886-1.427-4.666a7.43 7.43 0 0 1-1.26 1.013 6.996 6.996 0 0 1-1.568.69c-1.74.532-3.156.52-4.25-.035-1.084-.575-1.877-1.685-2.38-3.328l-.988-3.23 2.393-.732.93 3.039c.337 1.1.828 1.822 1.474 2.165.646.344 1.503.352 2.572.025a5.8 5.8 0 0 0 1.384-.607c.376-.255.724-.57 1.045-.948l-1.662-5.43 2.416-.74 3.69 12.06-2.368.725Zm13.038-2.395c-2 .371-3.68.098-5.038-.82-1.359-.919-2.224-2.378-2.596-4.38-.24-1.295-.205-2.472.107-3.531.329-1.063.887-1.938 1.675-2.628.802-.709 1.793-1.173 2.974-1.392 1.165-.217 2.186-.152 3.065.194s1.607.931 2.184 1.757c.575.81.975 1.821 1.2 3.035l.147.787-9.349 1.737-.265-1.426 7.651-1.422-.359.397c-.228-1.23-.684-2.13-1.366-2.698-.67-.588-1.52-.786-2.554-.594-1.148.213-1.96.78-2.433 1.699-.477.903-.586 2.051-.327 3.446l.046.246c.271 1.46.828 2.493 1.67 3.1.859.604 1.944.784 3.257.54a6.78 6.78 0 0 0 1.962-.67c.6-.332 1.143-.79 1.629-1.372l1.127 1.547c-.48.615-1.104 1.138-1.872 1.57a8.653 8.653 0 0 1-2.535.878Zm8.914-1.479-.85-12.583 2.498-.169.345 5.118 6.366-.43-.345-5.117L105.872 1l.85 12.583-2.497.168-.371-5.492-6.366.43.37 5.492-2.496.169Zm15.98-.62.665-12.594 2.299.12-.537 10.171-.7-.037 8.133-9.77 2.099.111-.664 12.595-2.274-.12.538-10.196.725.039-8.185 9.792-2.099-.111Zm14.933 1.156 2.524-3.02a4.02 4.02 0 0 1 1.408-1.103c.553-.26 1.084-.348 1.594-.26l.444.076-.067.243c-1.414-.243-2.461-.753-3.14-1.53-.679-.776-.916-1.764-.71-2.965.206-1.2.76-2.061 1.662-2.583.902-.523 2.118-.653 3.647-.39l5.82.999-2.133 12.43-2.293-.394.791-4.612-1.652-.284c-.625-.107-1.186-.042-1.684.194a3.76 3.76 0 0 0-1.272 1.051l-2.176 2.623-2.763-.475Zm6.752-5.315 3.083.529.766-4.464-3.083-.529c-.921-.158-1.645-.08-2.173.236-.512.319-.827.823-.945 1.514-.125.723.001 1.32.378 1.791.395.457 1.053.765 1.974.923Z" fill="#557CE2"/><path d="m10.108 62.812-3.822-3.533.951-1.03c-.238-.97-.683-1.926-1.334-2.869-.651-.942-1.558-1.951-2.722-3.027L.48 49.856l6.268-6.78 7.827 7.236 1.376-1.488 3.822 3.533-1.478 1.598-2.388-2.208-6.71 7.258 2.389 2.208-1.478 1.599Zm-1.273-6.254 4.145-4.483-6.413-5.928-3.176 3.436 1.635 1.511A17.024 17.024 0 0 1 7.4 53.8c.687.953 1.166 1.872 1.436 2.759Zm15.941-12.451c-.956.808-1.951 1.31-2.986 1.508a5.434 5.434 0 0 1-3.078-.348c-1.017-.428-1.962-1.159-2.834-2.191-.872-1.032-1.43-2.08-1.672-3.141-.253-1.075-.196-2.106.171-3.093.356-1 1.012-1.904 1.968-2.711.956-.808 1.956-1.304 3.001-1.489 1.048-.207 2.08-.097 3.098.332 1.02.405 1.965 1.124 2.837 2.156.872 1.032 1.428 2.09 1.669 3.176a5.388 5.388 0 0 1-.19 3.11c-.367.986-1.029 1.884-1.984 2.691Zm-1.276-1.51c.84-.71 1.262-1.569 1.264-2.575.001-1.006-.482-2.082-1.451-3.229-.97-1.146-1.945-1.797-2.926-1.95-.992-.166-1.909.106-2.75.817-.828.7-1.243 1.552-1.245 2.559-.012.993.466 2.063 1.435 3.21.97 1.146 1.944 1.808 2.923 1.985.992.166 1.909-.106 2.75-.817Zm14.193-7.314-1.747-1.296c.37-.488.633-.98.787-1.477.159-.52.189-1.078.089-1.677-.086-.607-.297-1.296-.633-2.066-.336-.77-.803-1.666-1.403-2.687L33 23.037l8.2-4.813L47.585 29.1l-2.158 1.267-5.383-9.172-4.035 2.369.823 1.402c.963 1.64 1.631 3.076 2.006 4.307.374 1.231.46 2.332.255 3.303-.198.948-.664 1.85-1.4 2.707ZM57.797 24.11c-1.866.813-3.564.926-5.094.337-1.531-.588-2.703-1.815-3.517-3.68-.526-1.208-.757-2.363-.692-3.466.08-1.108.427-2.088 1.04-2.937.62-.872 1.481-1.547 2.582-2.028 1.086-.473 2.096-.64 3.03-.502.934.139 1.775.545 2.524 1.22.743.659 1.36 1.554 1.854 2.685l.32.734-8.716 3.802-.58-1.33 7.133-3.112-.26.469c-.5-1.147-1.146-1.92-1.94-2.321-.784-.422-1.658-.423-2.622-.003-1.07.467-1.732 1.202-1.987 2.204-.26.988-.108 2.131.46 3.43l.1.23c.593 1.361 1.368 2.242 2.326 2.644.973.394 2.07.325 3.294-.209a6.778 6.778 0 0 0 1.76-1.095 5.746 5.746 0 0 0 1.278-1.704l1.447 1.253c-.328.707-.818 1.358-1.47 1.951a8.653 8.653 0 0 1-2.27 1.427Zm15.613-5.886-1.427-4.666a7.43 7.43 0 0 1-1.26 1.013 6.996 6.996 0 0 1-1.568.69c-1.74.532-3.156.52-4.25-.035-1.084-.575-1.877-1.685-2.38-3.328l-.988-3.23 2.393-.732.93 3.039c.337 1.1.828 1.822 1.474 2.165.646.344 1.503.352 2.572.025a5.8 5.8 0 0 0 1.384-.607c.376-.255.724-.57 1.045-.948l-1.662-5.43 2.416-.74 3.69 12.06-2.368.725Zm13.038-2.395c-2 .371-3.68.098-5.038-.82-1.359-.919-2.224-2.378-2.596-4.38-.24-1.295-.205-2.472.107-3.531.329-1.063.887-1.938 1.675-2.628.802-.709 1.793-1.173 2.974-1.392 1.165-.217 2.186-.152 3.065.194s1.607.931 2.184 1.757c.575.81.975 1.821 1.2 3.035l.147.787-9.349 1.737-.265-1.426 7.651-1.422-.359.397c-.228-1.23-.684-2.13-1.366-2.698-.67-.588-1.52-.786-2.554-.594-1.148.213-1.96.78-2.433 1.699-.477.903-.586 2.051-.327 3.446l.046.246c.271 1.46.828 2.493 1.67 3.1.859.604 1.944.784 3.257.54a6.78 6.78 0 0 0 1.962-.67c.6-.332 1.143-.79 1.629-1.372l1.127 1.547c-.48.615-1.104 1.138-1.872 1.57a8.653 8.653 0 0 1-2.535.878Zm8.914-1.479-.85-12.583 2.498-.169.345 5.118 6.366-.43-.345-5.117L105.872 1l.85 12.583-2.497.168-.371-5.492-6.366.43.37 5.492-2.496.169Zm15.98-.62.665-12.594 2.299.12-.537 10.171-.7-.037 8.133-9.77 2.099.111-.664 12.595-2.274-.12.538-10.196.725.039-8.185 9.792-2.099-.111Zm14.933 1.156 2.524-3.02a4.02 4.02 0 0 1 1.408-1.103c.553-.26 1.084-.348 1.594-.26l.444.076-.067.243c-1.414-.243-2.461-.753-3.14-1.53-.679-.776-.916-1.764-.71-2.965.206-1.2.76-2.061 1.662-2.583.902-.523 2.118-.653 3.647-.39l5.82.999-2.133 12.43-2.293-.394.791-4.612-1.652-.284c-.625-.107-1.186-.042-1.684.194a3.76 3.76 0 0 0-1.272 1.051l-2.176 2.623-2.763-.475Zm6.752-5.315 3.083.529.766-4.464-3.083-.529c-.921-.158-1.645-.08-2.173.236-.512.319-.827.823-.945 1.514-.125.723.001 1.32.378 1.791.395.457 1.053.765 1.974.923Z" stroke="#557CE2" stroke-width=".6" mask="url(#a)"/></svg>