<svg width="24" height="24" fill="none" xmlns="http://www.w3.org/2000/svg"><path d="M16.384 10.948a2.945 2.945 0 0 1-.759 1.473c-.458-2.95-2.203-2.915-2.203-5.634 0-.618.063-1.215.172-1.787-2.445.625-4.296 3.525-4.296 7.014 0 .313.016.622.045.925a4.023 4.023 0 0 1-.676-2.253c0-.5.09-.977.25-1.414C7.753 10.272 7 11.825 7 13.573c0 2.792 1.913 5.094 4.382 5.427-.524-.451-.877-1.277-.877-2.223 0-1.429.99-3.001 1.495-4.907.507 1.891 2.085 3.478 2.085 4.907 0 .838-.277 1.58-.704 2.053 2.09-.656 3.619-2.76 3.619-5.257 0-.953-.224-1.846-.617-2.625Z" fill="#557CE2"/><rect x=".5" y=".5" width="23" height="23" rx="11.5" stroke="#557CE2"/></svg>