<svg width="26" height="41" fill="none" xmlns="http://www.w3.org/2000/svg"><path d="M16.762 35.252c0 2.164-1.796 3.917-4.012 3.917-2.216 0-4.013-1.753-4.013-3.917 0-2.163 1.797-3.917 4.013-3.917s4.012 1.754 4.012 3.917ZM12.75 2.61c-6.08 0-11.068 4.658-11.415 10.51-.022.36.279.653.648.653h6.153c.369 0 .663-.295.725-.65.317-1.814 1.94-3.2 3.89-3.2 2.174 0 3.945 1.728 3.945 3.851 0 1.542-.943 2.535-2.75 4.297-2.085 2.037-4.94 4.825-4.94 9.467v1.186c0 .359.299.653.668.653h6.152a.662.662 0 0 0 .67-.653v-1.186c0-1.543.942-2.534 2.75-4.298 2.086-2.037 4.94-4.824 4.94-9.467 0-6.155-5.13-11.162-11.435-11.162h-.001Z" fill="#557CE2"/></svg>