<svg width="43" height="43" fill="none" xmlns="http://www.w3.org/2000/svg"><path fill-rule="evenodd" clip-rule="evenodd" d="M31.667 26.868V14.542c0-4.694-4.802-5.375-10.75-5.375-5.375 0-10.75.663-10.75 5.375v12.326a4.694 4.694 0 0 0 4.694 4.695l-2.007 2.006v.681h2.992l2.688-2.688h5.07l2.688 2.688h2.687v-.68l-2.024-2.008c2.598 0 4.712-2.096 4.712-4.694Zm-15.754-1.052a1.792 1.792 0 1 0-2.534 2.534 1.792 1.792 0 0 0 2.534-2.534Zm13.962-11.274H11.958V23.5h17.917v-8.958Zm-1.42 11.274a1.792 1.792 0 1 0-2.534 2.534 1.792 1.792 0 0 0 2.533-2.534Z" fill="#fff"/></svg>