<svg width="59" height="59" fill="none" xmlns="http://www.w3.org/2000/svg"><g clip-path="url(#a)"><g clip-path="url(#b)"><path d="M4.918 44.025a2.482 2.482 0 0 1 1.764-.731h1.652l8.79-8.836a.653.653 0 0 1 .46-.191h.253V14.192a.65.65 0 0 1 .19-.46l10.69-10.69a.65.65 0 0 1 .92 0l2.56 2.56a5.382 5.382 0 0 1 3.446-1.158c1.43.025 2.789.636 3.8 1.648l1.613 1.612a.647.647 0 0 1 0 .919L34.3 15.378a.653.653 0 0 1-.926-.006l-1.665-1.665A5.39 5.39 0 0 1 30.12 9.87c0-1.231.407-2.398 1.157-3.35l-2.1-2.1-10.04 10.04v19.807h6.356v-3.215h-1.297a2.539 2.539 0 0 1-2.546-2.54c-.003-1.403 1.208-2.551 2.612-2.551h.145a.65.65 0 0 1 0 1.3h-.17c-.675 0-1.257.518-1.286 1.192a1.24 1.24 0 0 0 1.245 1.3h7.541c.676 0 1.26-.52 1.288-1.195a1.243 1.243 0 0 0-1.245-1.297h-3.364a.65.65 0 0 1 0-1.3h3.306a2.62 2.62 0 0 1 1.807.698c.527.5.812 1.184.795 1.91-.033 1.39-1.21 2.483-2.601 2.483h-1.24v3.215h4.573L46.17 23.153c.76-.76 1.872-.93 2.788-.512l1.387-2.678a2.49 2.49 0 0 1-1.178-2.475l.677-4.878a2.505 2.505 0 0 1 2.47-2.153 2.482 2.482 0 0 1 1.993.99 2.48 2.48 0 0 1 .48 1.848l-.676 4.878a2.502 2.502 0 0 1-2.467 2.154l-.023-.001-1.64 3.166c.293.417.45.915.448 1.425 0 .667-.26 1.294-.73 1.763L37.364 39.066a.65.65 0 0 1-.46.19h-3.12v1.005a3.265 3.265 0 0 1-1.715 2.864v7.572h5.037a2.73 2.73 0 0 1 2.727 2.68c.024 1.524-1.265 2.772-2.789 2.772H24.558a.65.65 0 0 1-.65-.65V43.125a3.26 3.26 0 0 1-1.715-2.864v-1.005H19.43l-8.666 8.668a.648.648 0 0 1-.582.36h-3.5a2.498 2.498 0 0 1-1.764-4.259Zm27.71-31.237L33.842 14l5.835-5.837-1.212-1.212a4.1 4.1 0 0 0-2.917-1.208 4.102 4.102 0 0 0-2.918 1.208 4.102 4.102 0 0 0-1.21 2.919 4.1 4.1 0 0 0 1.208 2.918Zm18.719 6.2c.096.026.204.039.298.039.59 0 1.097-.443 1.178-1.032l.678-4.879a1.187 1.187 0 0 0-1.019-1.346 1.2 1.2 0 0 0-1.349 1.02l-.677 4.876a1.193 1.193 0 0 0 .89 1.323ZM29.184 31.053h-2.39v3.215h2.39v-3.215ZM25.208 54.85h11.898c.786 0 1.426-.64 1.426-1.426 0-.787-.64-1.426-1.426-1.426H25.208v2.852Zm0-4.152h5.562v-7.195c-.078.006-5.484.006-5.562 0v7.195Zm-1.715-10.436c0 .819.517 1.556 1.285 1.835.212.076.435.115.665.115h5.091c.23 0 .452-.04.665-.115a1.959 1.959 0 0 0 1.285-1.835v-1.005h-8.991v1.005Zm-16.81 6.724h3.181l8.837-8.838a.65.65 0 0 1 .46-.19h17.472L48.781 25.76a1.186 1.186 0 0 0 .35-.844c.017-1.024-1.321-1.609-2.04-.845L35.786 35.376a.65.65 0 0 1-.459.19H17.854l-8.788 8.836a.65.65 0 0 1-.46.192H6.681a1.191 1.191 0 0 0-1.195 1.195c0 .66.537 1.196 1.195 1.196Z" fill="#557CE2"/></g></g><defs><clipPath id="a"><path fill="#fff" transform="translate(4.178 3)" d="M0 0h50.644v53H0z"/></clipPath><clipPath id="b"><path fill="#fff" transform="matrix(-1 0 0 1 56 3)" d="M0 0h53v53H0z"/></clipPath></defs></svg>