<svg width="38" height="55" fill="none" xmlns="http://www.w3.org/2000/svg"><path d="m37.564 36.162-1.84-3.404.181-3.864a.94.94 0 0 0-.389-.813l-3.135-2.27-1.514-3.56a.935.935 0 0 0-.703-.562l-.629-.112V.944A.945.945 0 0 0 28.591 0H9.088a.945.945 0 0 0-.944.944v20.631l-.628.113a.942.942 0 0 0-.702.56l-1.515 3.561-3.135 2.27a.948.948 0 0 0-.39.809l.18 3.867-1.84 3.404a.94.94 0 0 0 0 .899l1.84 3.403-.18 3.867c-.014.319.131.62.39.81L5.3 47.406l1.515 3.561a.943.943 0 0 0 .702.56l3.81.685 2.909 2.553a.97.97 0 0 0 .876.2l3.73-1.039 3.719 1.036a.93.93 0 0 0 .885-.197l2.91-2.553 3.812-.685a.94.94 0 0 0 .7-.56l1.514-3.56 3.136-2.27a.938.938 0 0 0 .389-.81l-.182-3.866 1.838-3.4a.934.934 0 0 0 .002-.899ZM10.03 1.887h7.864v16.044a.945.945 0 0 0 1.888 0V1.887h7.864v19.351l-1.293-.232-2.912-2.554a.931.931 0 0 0-.875-.199l-3.728 1.038-3.733-1.039-.257-.024a.92.92 0 0 0-.615.224l-2.91 2.553-1.293.233V1.887Zm23.91 37.906a.95.95 0 0 0-.115.497l.17 3.62-2.94 2.126a.924.924 0 0 0-.31.392l-1.418 3.334-3.57.64a.964.964 0 0 0-.453.218l-2.723 2.39-3.484-.969a.97.97 0 0 0-.512-.002l-3.49.972-2.72-2.387a.94.94 0 0 0-.459-.222l-3.566-.64-1.419-3.336a.965.965 0 0 0-.313-.394L3.684 43.91l.169-3.622a.946.946 0 0 0-.113-.492l-1.724-3.184 1.721-3.184a.941.941 0 0 0 .115-.498l-.169-3.619 2.934-2.124a.94.94 0 0 0 .316-.396l1.418-3.334 3.565-.64a.93.93 0 0 0 .455-.219l2.723-2.389 3.494.973a.945.945 0 0 0 .502 0l3.49-.972 2.722 2.39c.13.113.287.189.457.22l3.566.639 1.418 3.333c.067.16.177.296.315.396l2.936 2.124-.17 3.61a.927.927 0 0 0 .112.503l1.722 3.187-1.718 3.182Z" fill="#FCAB53"/><path d="M18.839 28.283c-4.591 0-8.327 3.736-8.327 8.326 0 4.593 3.736 8.328 8.327 8.328 4.591 0 8.326-3.735 8.326-8.326 0-4.592-3.735-8.328-8.326-8.328Zm0 14.768c-3.55 0-6.44-2.89-6.44-6.44a6.447 6.447 0 0 1 6.44-6.44 6.446 6.446 0 0 1 6.439 6.44c0 3.55-2.888 6.44-6.439 6.44Z" fill="#FCAB53"/><path d="m16 36.5 2 2 3.5-3.5" stroke="#FCAB53"/></svg>