<svg width="41" height="28" fill="none" xmlns="http://www.w3.org/2000/svg"><path d="M31.5.5h.044c2.445.011 4.688.933 6.33 2.588 1.685 1.699 2.626 4.087 2.626 6.74 0 7.162-3.165 11.464-5.806 13.814-3.209 2.858-6.69 3.858-8.162 3.858-.16 0-.286-.1-.326-.227a.303.303 0 0 1 .132-.346c2.013-1.303 3.874-3.154 5.111-5.09.591-.926.924-1.683 1.095-2.259.086-.287.133-.534.15-.739.015-.186.011-.39-.052-.559l-.106-.28-.296-.038a.928.928 0 0 0-.121-.008c-3.022 0-5.49-.904-7.182-2.562a7.845 7.845 0 0 1-1.828-2.783c-.402-1.035-.609-2.172-.609-3.382 0-2.327.932-4.515 2.63-6.166h.001c1.7-1.65 3.96-2.56 6.37-2.56ZM9.5.5h.044c2.445.011 4.688.933 6.33 2.588 1.685 1.699 2.626 4.087 2.626 6.74 0 7.162-3.165 11.464-5.806 13.814C9.485 26.5 6.004 27.5 4.532 27.5c-.16 0-.286-.1-.326-.227a.303.303 0 0 1 .132-.346c2.013-1.303 3.874-3.154 5.111-5.09.591-.926.924-1.683 1.095-2.259.086-.287.133-.534.15-.739.015-.186.011-.39-.052-.559l-.106-.28-.296-.038a.928.928 0 0 0-.121-.008c-3.022 0-5.49-.904-7.182-2.562a7.844 7.844 0 0 1-1.828-2.783C.707 11.574.5 10.437.5 9.227c0-2.327.932-4.515 2.63-6.166h.001C4.83 1.411 7.09.501 9.5.501Z" fill="#EBF1FF" stroke="#B5C5E8"/></svg>