<svg width="800" height="800" viewBox="0 0 512 512" xmlns="http://www.w3.org/2000/svg"><path d="M469.333 106.667v298.666H42.667V106.667h426.666ZM128 341.333H85.333v21.334H128v-21.334Zm213.333-192H170.667v213.334h170.666V149.333Zm85.334 192H384v21.334h42.667v-21.334ZM213.333 202.667l96 53.333-96 53.333V202.667Zm213.334 74.666H384v21.334h42.667v-21.334Zm-298.667 0H85.333v21.334H128v-21.334Zm298.667-64H384v21.334h42.667v-21.334Zm-298.667 0H85.333v21.334H128v-21.334Zm298.667-64H384v21.334h42.667v-21.334Zm-298.667 0H85.333v21.334H128v-21.334Z" fill-rule="evenodd"/></svg>