<svg xmlns="http://www.w3.org/2000/svg" viewBox="0 0 30 30"><path d="M9.9 19.1h-.6c-.1 0-.1.1-.1.2v3.3c0 1-.4 1.4-1.2 1.4-.8 0-1.2-.5-1.2-1.5v-3.2c0-.1-.1-.2-.1-.2H6c-.1 0-.1.1-.1.2v3.3c0 1.5.7 2.3 2.1 2.3 1.4 0 2.2-.8 2.2-2.4v-3.2c-.1-.1-.2-.2-.3-.2zm5.3 0h-.6c-.1 0-.1.1-.1.2v3.3c0 1-.4 1.4-1.2 1.4-.8 0-1.2-.5-1.2-1.5v-3.2c0-.1-.1-.2-.1-.2h-.6c-.1 0-.1.1-.1.2v3.3c0 1.5.7 2.3 2.1 2.3 1.4 0 2.2-.8 2.2-2.4v-3.2c-.3-.1-.3-.2-.4-.2zm3.1 0h-1.7c-.1 0-.2.1-.2.2v.5c0 .1.1.2.2.2h.4v4h-.4c-.1 0-.2.1-.2.2v.5c0 .1.1.2.2.2h1.7c.1 0 .2-.1.2-.2v-.5c0-.1-.1-.2-.2-.2h-.4v-4h.4c.1 0 .2-.1.2-.2v-.5c0-.1-.1-.2-.2-.2zm2.9 0h-1.5c-.1 0-.2.1-.2.2v5.3c0 .1.1.2.2.2h1.4c.9 0 1.7-.3 2.2-.8.5-.5.8-1.2.8-2.1.1-1.9-.9-2.8-2.9-2.8zm1.5 4.3c-.4.3-.9.5-1.5.5h-.6V20h.7c1.4 0 2 .6 2 1.9-.1.6-.3 1.1-.6 1.5zM19.5 14l-2.3-2.4c.6-.7.9-1.6.9-2.5 0-2.2-1.8-3.9-3.9-3.9-2.2 0-3.9 1.8-3.9 3.9 0 2.2 1.8 3.9 3.9 3.9.8 0 1.6-.2 2.2-.7l2.3 2.4c.1.1.2.2.4.2.1 0 .3-.1.4-.1.2-.3.2-.6 0-.8zm-5.3-2c-1.6 0-2.9-1.3-2.9-2.9 0-1.6 1.3-2.9 2.9-2.9 1.6 0 2.9 1.3 2.9 2.9 0 1.6-1.3 2.9-2.9 2.9z"/></svg>