<svg width="41" height="41" fill="none" xmlns="http://www.w3.org/2000/svg"><g clip-path="url(#a)"><g clip-path="url(#b)"><path d="M37.7 9.86H3.047c-.528.001-1.034.2-1.407.555a1.847 1.847 0 0 0-.585 1.337v.488a2.724 2.724 0 0 0 .565 1.66c.369.482.888.841 1.485 1.026 1.127.244 2.276.391 3.43.439l.246 2.166c.03.266.162.512.371.69.21.18.481.278.763.278h.909c.282 0 .553-.098.763-.277.21-.179.341-.425.37-.691l.223-1.976c2.605.099 5.568.15 8.359.165l.237 2.102c.03.266.162.512.371.69.21.18.481.278.763.278h.908c.282 0 .554-.098.763-.277.21-.179.342-.425.371-.691l.237-2.101c2.79-.016 5.754-.067 8.358-.165l.223 1.975c.03.266.162.512.371.69.21.18.481.278.763.278h.909c.282 0 .553-.098.763-.277.21-.18.341-.425.37-.691l.246-2.165a20.18 20.18 0 0 0 3.45-.44 2.965 2.965 0 0 0 1.485-1.027 2.725 2.725 0 0 0 .565-1.66v-.487c0-.502-.211-.983-.585-1.337A2.049 2.049 0 0 0 37.7 9.86ZM9.044 17.438a.207.207 0 0 1-.072.135.228.228 0 0 1-.148.053h-.91a.228.228 0 0 1-.147-.053.207.207 0 0 1-.072-.134l-.227-2.013c.566.034 1.165.065 1.793.092l-.217 1.92Zm11.995.291a.207.207 0 0 1-.072.134.227.227 0 0 1-.148.054h-.909a.228.228 0 0 1-.148-.054.207.207 0 0 1-.072-.134l-.226-2.004h1.8l-.225 2.004Zm11.995-.29a.207.207 0 0 1-.072.134.228.228 0 0 1-.148.053h-.91a.228.228 0 0 1-.148-.053.207.207 0 0 1-.072-.135l-.216-1.92a116.52 116.52 0 0 0 1.792-.09l-.226 2.01Zm5.738-5.199c.002.41-.132.81-.384 1.143a2.038 2.038 0 0 1-1.019.71c-1.544.454-8.378.76-17.005.76-8.615 0-15.441-.306-16.986-.76a2.038 2.038 0 0 1-1.018-.71 1.873 1.873 0 0 1-.384-1.143v-.488c0-.27.113-.53.314-.72.201-.191.474-.299.758-.299H37.7c.285 0 .558.108.759.299.201.19.314.45.314.72v.488Zm-.579 10.05c-3.027-3.04-11.218-1.012-15.782.868-.69.282-1.296.434-2.047.434-.75 0-1.54-.152-2.229-.434-4.564-1.88-12.858-3.978-15.525-1.303-1.982 1.99-2.047 6.046-.266 9.024-.055 1.404.189 2.7.379 3.13.384.88 2.52 1.309 3.835 1.309.129 0 .25-.004.36-.012.256-.014.507-.064.746-.15.767.759 2.841 1.08 4.23 1.08.188 0 .364-.007.522-.018a3.4 3.4 0 0 0 1.079-.224c.267.344.663.577 1.107.65 1.054.18 2.123.269 3.194.264.475 0 .943-.017 1.384-.052.435-.025.85-.181 1.184-.446.335.265.75.422 1.184.448.443.034.91.052 1.385.052 1.071.004 2.14-.085 3.194-.264.444-.074.84-.307 1.108-.651.343.132.707.208 1.078.224.158.011.334.017.523.017 1.388 0 3.462-.32 4.229-1.079.239.086.49.136.745.15.111.008.232.012.361.012 1.315 0 3.45-.428 3.835-1.308.19-.432.241-1.636.187-3.04 1.781-2.978 1.879-6.796 0-8.682ZM4.947 34.261c-.939-.21-1.333-.486-1.377-.586-.267-.611-.539-3.615 0-4.492.363-.59 1.152-.78 1.448-.726a3.01 3.01 0 0 1 1.401.726c.388.36.666.813.801 1.311.036.148.045.3.026.451a13.4 13.4 0 0 0 .048 3.412c-.3.108-1.216.157-2.346-.096Zm5.42.982c-1.422-.22-2.022-.597-2.09-.746-.308-.682-.282-4.375.369-5.548.245-.44.993-.619 1.864-.443 1.18.238 2.413 1.098 2.59 2.493.01.089.012.178.003.267a25.757 25.757 0 0 0 .017 3.718c.005.07.019.136.03.204-.289.149-1.34.278-2.782.056Zm9.378.52a.991.991 0 0 1-.644.223c-1.447.107-2.901.04-4.33-.2a.912.912 0 0 1-.537-.304.83.83 0 0 1-.2-.563c-.053-.67-.197-3 .14-4.86.062-.455.299-.872.665-1.17a2.01 2.01 0 0 1 1.318-.445 3.562 3.562 0 0 1 2.121.669 3.265 3.265 0 0 1 1.242 1.765c.514 2.08.454 4.412.227 4.885h-.002Zm6.945-.845a.83.83 0 0 1-.2.563.913.913 0 0 1-.538.304 18.09 18.09 0 0 1-4.33.2.989.989 0 0 1-.644-.224c-.227-.472-.287-2.804.225-4.883a3.264 3.264 0 0 1 1.208-1.741 3.559 3.559 0 0 1 2.07-.694h.082a2.01 2.01 0 0 1 1.319.445c.366.298.603.715.664 1.17.343 1.862.198 4.192.146 4.862l-.002-.002Zm5.757-.422c-.067.149-.666.527-2.09.746-1.44.222-2.492.093-2.78-.056.098-1.306.113-2.617.045-3.925a1.31 1.31 0 0 1 .004-.262c.176-1.397 1.41-2.257 2.59-2.495.873-.174 1.622.003 1.865.443.652 1.176.678 4.869.368 5.55h-.002Zm4.709-.822c-.044.1-.439.375-1.38.586-1.13.252-2.045.203-2.347.097.161-1.13.177-2.276.048-3.411-.02-.151-.01-.304.026-.452.135-.498.412-.952.8-1.311a3.01 3.01 0 0 1 1.402-.726c.295-.053 1.023-.114 1.387.476.543.877.333 4.132.065 4.742l-.001-.001Zm.73-5.184c-.457-.741-1.335-1.076-2.352-.892-.979.2-1.837.756-2.392 1.548a3.275 3.275 0 0 0-.247-.605c-.445-.803-1.571-1.152-2.87-.89a4.409 4.409 0 0 0-2.722 1.715 2.713 2.713 0 0 0-1.051-1.31 2.94 2.94 0 0 0-1.659-.484 4.51 4.51 0 0 0-2.63.793 4.145 4.145 0 0 0-1.599 2.137 4.133 4.133 0 0 0-1.598-2.138 4.499 4.499 0 0 0-2.633-.79 2.94 2.94 0 0 0-1.658.483c-.486.322-.854.78-1.052 1.31a4.41 4.41 0 0 0-2.723-1.715c-1.298-.262-2.424.088-2.869.89-.102.194-.238.198-.3.407-.554-.793-1.36-1.15-2.34-1.35-1.015-.183-1.894.151-2.351.893-.1.171-.177.12-.23.308-.927-2.342-.663-4.662.774-6.105 1.987-1.995 9.038-.832 14.432 1.39.805.33 1.672.5 2.548.5.877 0 1.744-.17 2.549-.5 5.393-2.222 12.445-3.385 14.431-1.39 1.438 1.443 1.701 3.997.774 6.339a2.277 2.277 0 0 0-.23-.542l-.002-.002Z" fill="#fff"/></g></g><defs><clipPath id="a"><path fill="#fff" d="M0 0h41v41H0z"/></clipPath><clipPath id="b"><path fill="#fff" transform="translate(.752 9.266)" d="M0 0h39.224v27.784H0z"/></clipPath></defs></svg>