<svg width="59" height="59" fill="none" xmlns="http://www.w3.org/2000/svg"><g clip-path="url(#a)"><g clip-path="url(#b)" fill="#557CE2"><path d="M48.75 42.853a6.466 6.466 0 0 0-3.559-5.267l-8.311-4.16a1.347 1.347 0 0 0-.782-.13l-.15.04a1.187 1.187 0 0 0-.58.338l-.593-.893a8.611 8.611 0 0 0 3.318-6.388 3.057 3.057 0 0 0 2.855-2.998v-.15a3.064 3.064 0 0 0-.43-1.552 16.94 16.94 0 0 0 0-2.49c.33-.092.632-.27.873-.515a2.1 2.1 0 0 0-1.46-3.618 49.348 49.348 0 0 0-.274-1.251 9.707 9.707 0 0 0-7.829-7.523 8.849 8.849 0 0 0-.593-.078c-1.14-.13-2.29-.13-3.429 0a9.818 9.818 0 0 0-4.824 1.695 8.813 8.813 0 0 0-3.37 5.052 54.978 54.978 0 0 0-.47 2.073 2.126 2.126 0 0 0-2.105 2.105 2.107 2.107 0 0 0 1.526 2.014 16.801 16.801 0 0 0 0 2.347 3.062 3.062 0 0 0-.509 1.688v.203a3.058 3.058 0 0 0 2.868 3.044 8.618 8.618 0 0 0 3.358 6.42l-.646.842-.124-.124-.058-.04a1.515 1.515 0 0 0-.215-.136l-.105-.04a1.456 1.456 0 0 0-.71-.065 1.687 1.687 0 0 0-.307.111l-1.884.939h-.045l-6.219 3.11a6.831 6.831 0 0 0-3.755 5.566l-.574 9.306a.654.654 0 0 0 .176.496.652.652 0 0 0 .476.209h38.422a.655.655 0 0 0 .475-.209.654.654 0 0 0 .176-.496l-.612-9.475Zm-9.556-23.578c.033.423.046.828.052 1.212a3.003 3.003 0 0 0-1.154-.313v-.9h1.102Zm.45 4.12a1.762 1.762 0 0 1-1.551 1.747v-3.703c.464.051.888.286 1.18.652a.58.58 0 0 0 .123.182c.162.27.248.579.248.893v.228Zm1.036-6.2a.776.776 0 0 1-.241.574.797.797 0 0 1-.56.228h-5.02c.044-.272.068-.546.072-.821a5.285 5.285 0 0 0-.065-.783h5.013c.432 0 .787.343.801.776v.026Zm-15.09 1.18a4.174 4.174 0 0 1-.183-1.219 4.125 4.125 0 0 1 8.246 0c0 .413-.062.824-.182 1.219a4.12 4.12 0 0 1-7.881 0Zm-4.694-5.071a7.568 7.568 0 0 1 2.842-4.335 8.343 8.343 0 0 1 4.23-1.454 13.337 13.337 0 0 1 3.143 0c.176 0 .352.04.528.072a8.395 8.395 0 0 1 6.734 6.518c.071.3.143.652.215.952h-4.075a5.428 5.428 0 0 0-7.081-2.924 5.43 5.43 0 0 0-2.938 2.924H20.48c.117-.574.248-1.16.397-1.753h.02Zm-2.314 3.298a.782.782 0 0 1 .56-.235h5.02a4.82 4.82 0 0 0 .006 1.604h-5.045a.808.808 0 0 1-.802-.802c0-.214.087-.419.241-.567h.02Zm2.294 3.572a2.904 2.904 0 0 0-1.062.268c0-.365 0-.757.052-1.167h1.01v.9Zm-1.564 3.22v-.15c.001-.345.103-.683.293-.97a.7.7 0 0 0 .157-.21 1.785 1.785 0 0 1 1.095-.625v3.65a1.761 1.761 0 0 1-1.545-1.694Zm2.849 2.608v-6.727h2.347a5.425 5.425 0 0 0 9.986 0h2.295v6.727a7.314 7.314 0 0 1-14.628 0Zm7.34 8.618a8.549 8.549 0 0 0 4.191-1.095l.79 1.199L29.5 40.48l-4.96-5.75.781-1.18a8.542 8.542 0 0 0 4.179 1.07Zm-17.966 8.546a5.535 5.535 0 0 1 3.044-4.505l6.258-3.129h.04l1.831-.906c.157.17 6.14 7.119 6.14 7.119v9.984H11.002l.534-8.563Zm18.618 8.563v-10.01l6.134-7.132 8.318 4.159a5.215 5.215 0 0 1 2.848 4.204l.548 8.772-17.848.007Z"/><path d="M29.5 20.134a2.955 2.955 0 0 0 2.96-2.948 2.951 2.951 0 0 0-2.951-2.957 2.953 2.953 0 0 0-.009 5.905Zm0-4.563a1.65 1.65 0 1 1-1.642 1.643 1.643 1.643 0 0 1 1.642-1.708v.065Zm-7.072 29.335h-6.055a.652.652 0 0 0 0 1.304h6.055a.652.652 0 0 0 0-1.304Zm20.208 0H36.58a.652.652 0 0 0 0 1.304h6.056a.652.652 0 0 0 0-1.304Z"/></g></g><defs><clipPath id="a"><path fill="#fff" transform="translate(9.574 5)" d="M0 0h39.852v47.822H0z"/></clipPath><clipPath id="b"><path fill="#fff" transform="translate(.98 5.795)" d="M0 0h57.038v57.038H0z"/></clipPath></defs></svg>