<svg width="59" height="59" fill="none" xmlns="http://www.w3.org/2000/svg"><path d="M39.361 35.386a.662.662 0 0 1-.468-.194 12.514 12.514 0 0 0-4.085-2.728.662.662 0 1 1 .505-1.224 13.8 13.8 0 0 1 3.945 2.476 19.375 19.375 0 0 0 3.072-10.705c0-9.635-5.173-16.362-12.577-16.362-7.405 0-12.587 6.727-12.587 16.36a19.328 19.328 0 0 0 3.078 10.707 13.775 13.775 0 0 1 3.938-2.478.664.664 0 0 1 .881.352.662.662 0 0 1-.375.872 12.51 12.51 0 0 0-4.076 2.726.662.662 0 0 1-1-.074 20.43 20.43 0 0 1-3.77-12.108c0-10.41 5.72-17.682 13.91-17.682 8.19 0 13.902 7.272 13.902 17.685a20.49 20.49 0 0 1-3.759 12.107.663.663 0 0 1-.483.264l-.05.006Z" fill="#557CE2"/><path d="M30.152 34.897h-.809a.644.644 0 0 1-.094-.007c-10.462-1.497-9.282-16.604-9.27-16.756a.664.664 0 0 1 .795-.591c1.984.362 4.023.301 5.982-.18 4.52-1.323 6.197-4.085 6.213-4.112a.663.663 0 0 1 1.22.202c.03.133.764 3.377 4.782 4.086a.663.663 0 0 1 .543.596c.014.152 1.197 15.259-9.27 16.756a.635.635 0 0 1-.091.006Zm-.761-1.325h.714c8.2-1.214 8.218-12.352 8.118-14.832a7 7 0 0 1-4.89-3.799 13.215 13.215 0 0 1-6.205 3.692 14.954 14.954 0 0 1-5.863.327c-.082 2.87.163 13.433 8.126 14.612Z" fill="#557CE2"/><path d="M45.882 52.152H13.727a.662.662 0 0 1-.662-.662v-6.807a7.622 7.622 0 0 1 6.562-7.692l2.45-.385a4.198 4.198 0 0 0 3.251-3.61.662.662 0 0 1 1.321.06c0 .024 0 .056-.004.081a5.53 5.53 0 0 1-4.324 4.768l-2.482.39a6.61 6.61 0 0 0-1.397.358 6.479 6.479 0 0 0-4.05 6.026v6.144H45.22v-6.14a6.466 6.466 0 0 0-4.055-6.026 6.633 6.633 0 0 0-1.395-.357l-2.44-.383a5.534 5.534 0 0 1-4.37-4.861.662.662 0 1 1 1.318-.133 4.201 4.201 0 0 0 3.298 3.689l2.403.377a7.94 7.94 0 0 1 1.683.438 7.784 7.784 0 0 1 4.883 7.256v6.807a.662.662 0 0 1-.662.662Z" fill="#557CE2"/><path d="M29.804 42.571a.658.658 0 0 1-.452-.178L23.52 36.95a.662.662 0 0 1 .903-.968l5.382 5.022 5.39-5.021a.66.66 0 0 1 1.123.505.663.663 0 0 1-.22.463l-5.84 5.443a.658.658 0 0 1-.453.177Z" fill="#557CE2"/></svg>