<svg width="24" height="24" fill="none" xmlns="http://www.w3.org/2000/svg"><g clip-path="url(#a)"><path d="M16.897 11.366a3.117 3.117 0 0 1-.82 1.568c-.497-3.14-2.386-3.102-2.386-5.996 0-.657.068-1.292.187-1.9-2.648.664-4.65 3.75-4.65 7.462 0 .334.016.662.048.984a4.298 4.298 0 0 1-.46-3.902C7.552 10.648 6.738 12.3 6.738 14.16c0 2.972 2.07 5.42 4.744 5.775-.567-.48-.949-1.359-.949-2.365 0-1.52 1.07-3.194 1.618-5.221.549 2.011 2.257 3.7 2.257 5.22 0 .892-.3 1.682-.762 2.185 2.262-.698 3.918-2.937 3.918-5.594a6.116 6.116 0 0 0-.668-2.793Z" fill="#557CE2"/></g><rect x=".5" y=".5" width="23" height="23" rx="11.5" stroke="#557CE2"/><defs><clipPath id="a"><path fill="#fff" transform="translate(6.316 5.053)" d="M0 0h11.368v15.158H0z"/></clipPath></defs></svg>