<svg xmlns="http://www.w3.org/2000/svg" width="26" height="32" fill="none"><path fill="#B5C5E8" d="M23.879 6.108a14.825 14.825 0 0 1-9.284-4.263l-.638-.668A1.353 1.353 0 0 0 13 .795c-.35 0-.702.127-.957.382l-.638.668a14.822 14.822 0 0 1-9.284 4.263A1.35 1.35 0 0 0 .877 7.444v3.85c0 8.081 4.403 15.59 11.453 19.567.191.127.447.159.67.159.224 0 .447-.064.67-.16 7.05-3.976 11.454-11.485 11.454-19.566v-3.85c0-.7-.543-1.272-1.245-1.336Zm-5.04 7.222-5.966 6.459a1.578 1.578 0 0 1-.958.445h-.031c-.351 0-.702-.127-.958-.382l-3.35-3.404a1.342 1.342 0 0 1 0-1.877 1.35 1.35 0 0 1 1.883 0l2.392 2.386 5.01-5.44a1.353 1.353 0 0 1 1.882-.096c.542.51.574 1.368.095 1.91Z"/></svg>