<svg width="90" height="287" fill="none" xmlns="http://www.w3.org/2000/svg"><g clip-path="url(#a)"><path d="M33.676 139.998c.855.494 1.71.979 2.564 1.473.198.113.389.227.587.333a.872.872 0 0 1 .39.509.89.89 0 0 1-.084.653c-.115.182-.29.341-.512.387a.897.897 0 0 1-.656-.084c-.542-.311-1.083-.622-1.617-.933-.855-.494-1.71-.979-2.564-1.473-.198-.113-.389-.227-.587-.334a.867.867 0 0 1-.39-.508.885.885 0 0 1 .085-.653c.114-.182.29-.341.51-.387a.897.897 0 0 1 .657.084c.534.319 1.076.63 1.617.933Zm5.211-6.276c.244.364.488.728.725 1.085.389.577.77 1.153 1.16 1.73.09.129.175.266.266.395.122.174.145.455.084.652a.87.87 0 0 1-.389.509c-.198.106-.435.159-.656.083a.927.927 0 0 1-.511-.387c-.244-.364-.488-.728-.725-1.085-.389-.577-.77-1.153-1.16-1.73-.091-.129-.175-.266-.267-.395-.122-.174-.145-.455-.084-.652a.87.87 0 0 1 .39-.509c.198-.106.434-.159.656-.083a.954.954 0 0 1 .51.387Zm8.156-2.967.115 1.654c.06.88.122 1.753.183 2.633l.046.608c.015.205-.107.455-.252.599a.888.888 0 0 1-.603.251c-.221-.008-.45-.084-.603-.251a.925.925 0 0 1-.251-.599l-.115-1.655c-.06-.88-.122-1.753-.183-2.633l-.046-.607c-.015-.205.107-.456.252-.6a.882.882 0 0 1 .603-.25c.221.007.45.083.602.25.16.175.237.372.252.6Zm-13.688 16.863c.16.007.32.023.474.03.228.015.442.084.602.251.145.144.26.387.252.599-.008.22-.084.448-.252.6-.16.144-.381.265-.602.25-.435-.03-.878-.053-1.313-.083l-2.083-.137c-.16-.008-.32-.023-.473-.03-.229-.015-.442-.084-.602-.251a.874.874 0 0 1-.252-.599c.007-.22.084-.448.252-.6.16-.144.381-.265.602-.25.435.03.878.053 1.313.083a97.03 97.03 0 0 0 2.082.137Zm2.847 6.678c.107.197.16.432.084.652-.069.205-.191.41-.39.509-.495.243-.999.486-1.495.728-.793.387-1.587.775-2.388 1.162-.183.091-.366.174-.55.265-.205.099-.426.152-.655.084a.873.873 0 0 1-.511-.387c-.107-.198-.16-.433-.084-.653.068-.205.19-.41.389-.509.496-.242 1-.485 1.495-.728.794-.387 1.587-.774 2.388-1.161.183-.091.366-.175.55-.266.206-.098.427-.152.656-.083a.873.873 0 0 1 .51.387ZM78.37 167.63c-.854-.494-1.709-.979-2.563-1.473-.199-.113-.39-.227-.588-.334a.867.867 0 0 1-.389-.508.885.885 0 0 1 .084-.653c.114-.182.29-.341.511-.387a.897.897 0 0 1 .656.084c.542.311 1.084.622 1.618.933.854.494 1.709.979 2.563 1.473.199.113.39.227.588.333a.872.872 0 0 1 .389.509.89.89 0 0 1-.084.653c-.115.182-.29.341-.511.387a.897.897 0 0 1-.656-.084 306.07 306.07 0 0 0-1.618-.933Zm-5.211 6.283c-.245-.364-.489-.728-.725-1.085-.39-.577-.77-1.153-1.16-1.73-.091-.129-.175-.266-.267-.395-.122-.174-.145-.455-.084-.652a.87.87 0 0 1 .39-.509c.198-.106.434-.159.655-.083a.927.927 0 0 1 .512.387c.244.364.488.728.724 1.085.39.577.771 1.153 1.16 1.73.092.129.176.266.267.395.122.174.145.455.084.652a.869.869 0 0 1-.39.509c-.197.106-.434.159-.655.083a.927.927 0 0 1-.511-.387Zm-8.156 2.96-.115-1.654c-.06-.881-.122-1.753-.183-2.634l-.046-.607c-.015-.205.107-.455.252-.599a.888.888 0 0 1 .603-.251c.221.008.45.084.603.251.16.174.236.364.251.599l.115 1.655.183 2.633.046.607c.015.205-.107.456-.252.6a.883.883 0 0 1-.603.25c-.22-.007-.45-.083-.602-.25a.912.912 0 0 1-.252-.6Zm13.687-16.862c-.16-.008-.32-.023-.473-.03-.229-.016-.442-.084-.603-.251a.874.874 0 0 1-.251-.599c.007-.221.084-.448.251-.6.16-.144.382-.266.603-.25.435.03.878.053 1.312.083l2.083.137c.16.007.32.022.473.03.23.015.443.084.603.25.145.145.26.388.252.6-.008.22-.084.448-.252.6-.16.144-.382.265-.603.25-.435-.03-.877-.053-1.312-.083l-2.083-.137Zm-2.846-6.671c-.107-.197-.16-.433-.084-.653.068-.205.19-.41.389-.508.496-.243 1-.486 1.495-.729.793-.387 1.587-.774 2.388-1.161.183-.091.366-.175.55-.266.205-.098.427-.151.656-.083a.872.872 0 0 1 .51.387c.108.197.16.433.085.653-.07.205-.191.409-.39.508-.495.243-.999.486-1.495.729-.793.387-1.587.774-2.388 1.161-.183.091-.366.174-.55.265-.205.099-.427.152-.655.084a.873.873 0 0 1-.511-.387Z" fill="#80A3FF"/><path d="m64.904 151.344-4.502 7.763a1.34 1.34 0 0 1-1.83.486l-.504-.288a1.327 1.327 0 0 1-.488-1.822l4.5-7.763 2.824 1.624Zm3.54-26.319c.267-.342.572-.638.9-.88a.731.731 0 0 1 .793-.038l1.26.721c.121-.228.236-.456.358-.683l-.267-.152a.469.469 0 1 1 .465-.812l.229.129.297-.592-.19-.106a.468.468 0 1 1 .465-.812l.137.075c3.35-6.89 5.883-14.214 7.378-21.689 1.907-9.563 2.16-20.331-2.792-29.082-2.64-4.667-6.653-8.37-11.498-10.708-5.829-2.816-12.375-3.719-18.669-4.925-6.6-1.268-13.1-3.104-19.05-6.284-5.715-3.058-10.735-7.331-14.771-12.37-7.737-9.684-12.04-22.123-11.246-34.53.1-1.549.282-3.09.526-4.622.1-.615.87-.957 1.42-.805.655.182.9.797.808 1.412-1.938 12.135 1.442 24.748 8.5 34.743 3.623 5.13 8.277 9.615 13.656 12.893 5.737 3.5 12.161 5.594 18.723 6.944 6.332 1.306 12.848 2.103 18.89 4.524 5.455 2.185 10.132 5.722 13.459 10.564 5.836 8.507 6.362 19.397 4.898 29.278-1.32 8.925-4.273 17.668-8.233 25.796l.641.364a.469.469 0 1 1-.465.812l-.588-.334-.297.592.55.319a.468.468 0 1 1-.465.812l-.512-.288c-.115.227-.237.455-.359.683l1.442.827a.724.724 0 0 1 .366.706 4.748 4.748 0 0 1-.313 1.214l-2.35 5.73-7.904-4.539 3.808-4.887Zm-.299 27.199-2.815-1.616-2.83-1.624-5.517-3.173-2.83-1.624-2.815-1.616a.911.911 0 0 1-.336-1.237l3.235-5.578a.92.92 0 0 1 1.243-.334.906.906 0 0 0 .687.091l3.342-.888a.922.922 0 0 0 .55-.417l2.128-3.674a.921.921 0 0 1 1.243-.333l.763.44 7.904 4.538.763.44c.435.251.58.805.336 1.237l-2.129 3.673a.893.893 0 0 0-.091.683l.892 3.324a.916.916 0 0 0 .42.547.91.91 0 0 1 .336 1.237l-3.235 5.578a.918.918 0 0 1-1.244.326Zm-16.089 2.088a1.342 1.342 0 0 1-1.831.485l-.504-.288a1.327 1.327 0 0 1-.488-1.822l4.501-7.763 2.83 1.624-4.508 7.764Zm-1.022 22.842L38.2 169.785a2.467 2.467 0 0 1-.443-3.035l3.9-6.717 16.143 9.274-3.899 6.717a2.509 2.509 0 0 1-2.868 1.13Zm-8.958-17.857a1.291 1.291 0 0 1-.465-1.76l.847-1.457a1.304 1.304 0 0 1 1.777-.478l16.121 9.258c.626.357.84 1.154.481 1.769l-.847 1.457a1.301 1.301 0 0 1-1.762.478l-16.152-9.267ZM79.27 293.595c-.542-.152-1.046-.835-.81-1.412 4.762-11.437 7.707-24.384 5.738-36.769-.892-5.624-2.762-11.225-6.4-15.702-3.472-4.265-8.248-7.316-13.826-7.809-6.721-.592-13.458 1.457-20.134-.061-4.104-.933-8.17-2.732-11.078-5.844-5.47-5.866-5.271-14.442-3.608-21.773 1.663-7.301 4.753-14.29 8.362-20.893l-.367-.212a.469.469 0 1 1 .465-.812l.352.197c.107-.19.213-.387.32-.577l-.335-.197a.468.468 0 1 1 .465-.812l.328.19c.153-.266.297-.524.45-.782l-.87-.501a.396.396 0 0 1-.206-.326 2 2 0 0 1 .275-1.184l.519-.895c-2.45-1.579-2.548-4.349-1.16-6.914l12.833 7.369c-1.541 2.481-3.998 3.787-6.6 2.459l-.518.895a2.07 2.07 0 0 1-.893.827.413.413 0 0 1-.39-.015l-.999-.577c-.152.259-.297.524-.45.782l.45.258a.469.469 0 1 1-.465.812l-.443-.25c-.106.19-.213.387-.32.577l.427.242a.468.468 0 1 1-.465.812l-.412-.235c-3.06 5.609-5.684 11.467-7.416 17.592-1.114 3.931-1.831 7.741-1.655 11.816.022.463.053.926.099 1.389.053.569.068.637.152 1.161.145.873.351 1.738.618 2.58.13.395.267.789.42 1.177l.053.129c.038.083.069.159.107.242.107.228.214.456.328.676.397.766.855 1.502 1.373 2.185.016.023.031.038.039.054.015.015.03.03.045.06.046.053.092.114.138.167a16.199 16.199 0 0 0 1.457 1.526c.702.645 1.19 1.009 1.991 1.525 1.808 1.161 3.655 1.913 5.715 2.489 3.06.865 6.141.979 9.3.797 3.303-.19 6.6-.622 9.918-.546 3.12.076 6.15.668 8.98 1.988 2.487 1.161 4.738 2.846 6.653 4.796 4.044 4.129 6.53 9.396 7.881 14.959 2.999 12.362.84 25.62-3.433 37.421a99.54 99.54 0 0 1-1.602 4.114c-.214.607-.74 1.017-1.397.835Z" fill="#2E4789"/></g><defs><clipPath id="a"><path fill="#fff" transform="matrix(0 1 1 0 0 0)" d="M0 0h287v90H0z"/></clipPath></defs></svg>