<svg width="81" height="76" fill="none" xmlns="http://www.w3.org/2000/svg"><path d="M79.566 39.26a11.359 11.359 0 0 1-2.006 11.478L59.386 71.813a11.358 11.358 0 0 1-10.558 3.771l-28.794-5.033a11.359 11.359 0 0 1-8.653-7.129l-9.947-25.99A11.358 11.358 0 0 1 3.44 25.954L21.614 4.878a11.359 11.359 0 0 1 10.558-3.77L60.966 6.14a11.358 11.358 0 0 1 8.653 7.13l9.947 25.99Z" fill="url(#a)"/><defs><linearGradient id="a" x1="3.053" y1="7.948" x2="-2.18" y2="65.039" gradientUnits="userSpaceOnUse"><stop stop-color="#FC9A53"/><stop offset="1" stop-color="#FCAE53"/></linearGradient></defs></svg>