<svg width="45" height="45" fill="none" xmlns="http://www.w3.org/2000/svg"><g clip-path="url(#a)"><path d="M34.457 23.173a2.596 2.596 0 0 0-1.418-.536 2.621 2.621 0 0 0-.887-2.89 2.598 2.598 0 0 0-1.418-.535 2.621 2.621 0 0 0-.887-2.89 2.585 2.585 0 0 0-1.247-.518l2.6-3.383a2.618 2.618 0 0 0-.475-3.664 2.608 2.608 0 0 0-3.658.477l-9.3 12.1-1.748-3.613a3.933 3.933 0 0 0-1.134-1.395 2.492 2.492 0 0 0-3.498.461 2.48 2.48 0 0 0-.496 1.845l1.538 11.843a10.046 10.046 0 0 0 3.854 6.708c3.704 2.855 9.037 2.16 11.888-1.549l6.762-8.798a2.618 2.618 0 0 0-.476-3.663Zm-7.32 11.664a7.174 7.174 0 0 1-10.06 1.31 8.738 8.738 0 0 1-3.353-5.84l-1.54-11.845a1.184 1.184 0 0 1 .241-.884c.4-.52 1.146-.617 1.664-.217.32.247.58.566.756.93l2.209 4.564a.653.653 0 0 0 1.102.113L28.1 10.031a1.304 1.304 0 1 1 2.067 1.593l-7.557 9.833a.652.652 0 1 0 1.034.797l3.579-4.658a1.304 1.304 0 1 1 2.067 1.593l-3.58 4.658a.652.652 0 1 0 1.033.797l2.785-3.623a1.304 1.304 0 1 1 2.067 1.594l-2.785 3.622a.652.652 0 1 0 1.034.797l1.989-2.588A1.304 1.304 0 1 1 33.9 26.04l-6.762 8.797Z" fill="#557CE2"/></g><defs><clipPath id="a"><path fill="#fff" transform="rotate(37.63 9.361 29.36) skewX(.084)" d="M0 0h31.317v31.33H0z"/></clipPath></defs></svg>