<svg width="69" height="55" fill="none" xmlns="http://www.w3.org/2000/svg"><path d="M57.112 26.108a4.785 4.785 0 0 0-6.305.159l-5.944 5.497a4.519 4.519 0 0 0-3.68-1.893H34.88c-.793 0-1.56-.137-2.281-.409-1.781-.67-5.3-1.575-8.843-.09-.675.283-1.349.707-2.002 1.26l-6.158 5.22a2.483 2.483 0 0 0-3.04.39l-2.818 2.86a2.576 2.576 0 0 0 0 3.607l9.405 9.545a2.49 2.49 0 0 0 3.555 0l2.817-2.86c.98-.993.98-2.612 0-3.607l-.09-.091.68-.69c1.28-1.298 3-1.986 4.735-1.862a43.68 43.68 0 0 0 12.536-1.006 7.801 7.801 0 0 0 3.836-2.143l10.075-10.226a2.501 2.501 0 0 0-.174-3.661Zm-32.738 22.13-2.817 2.86a.894.894 0 0 1-1.275 0l-9.405-9.546a.915.915 0 0 1-.265-.647.925.925 0 0 1 .265-.647l2.817-2.859a.894.894 0 0 1 1.275 0l9.405 9.544a.926.926 0 0 1 0 1.295Zm31.773-19.626L46.07 38.838a6.206 6.206 0 0 1-3.047 1.704 42.072 42.072 0 0 1-12.08.969c-2.19-.147-4.373.705-5.98 2.339l-.68.689-7.445-7.61 5.947-5.042c.527-.445 1.06-.783 1.585-1.004 3.033-1.27 6.105-.474 7.666.113a8.03 8.03 0 0 0 2.842.511h6.304c1.656 0 2.955 1.366 2.942 3a.911.911 0 0 1-.911.902h-14.17a.812.812 0 0 0-.806.818c0 .452.361.818.806.818h14.17c1.381 0 2.513-1.134 2.523-2.526a4.648 4.648 0 0 0-.15-1.211l6.306-5.831a3.183 3.183 0 0 1 4.194-.107c.378.316.406.891.06 1.242Z" fill="#fff"/><path d="M37.497 27C43.838 27 48.998 21.841 49 15.5a.83.83 0 0 0-.829-.829h-9.842V4.83a.832.832 0 0 0-.832-.83C31.157 4 26 9.158 26 15.497 26 21.84 31.157 27 37.497 27ZM36.67 5.692V15.5a.828.828 0 0 0 .829.829h9.807c-.424 5.04-4.662 9.013-9.81 9.013-5.426 0-9.839-4.416-9.839-9.845 0-5.147 3.973-9.384 9.013-9.805Z" fill="#fff"/><path d="M40.807 13h10.386a.81.81 0 0 0 .807-.81C52 6.02 46.979 1.002 40.807 1a.807.807 0 0 0-.807.807v10.386a.806.806 0 0 0 .807.807Zm.807-10.352c4.64.39 8.351 4.1 8.74 8.738h-8.74V2.648Z" fill="#fff"/></svg>