<svg width="13" height="13" fill="none" xmlns="http://www.w3.org/2000/svg"><path d="M12.235 9.355C10.432 13.008 7.726 13.35.4 12.78-.163 9.925-.515 4.573 2.09 1.933c2.819-2.855 6.764-2.284 9.018 0 1.127.951 2.93 3.768 1.127 7.422Z" fill="#557CE2"/><path d="M6.5 0A6.507 6.507 0 0 0 0 6.5V13h6.5a6.5 6.5 0 1 0 0-13Zm0 12.48H.52V6.5a5.98 5.98 0 1 1 5.98 5.98Zm1.552-9.262a.691.691 0 1 1-1.383 0 .691.691 0 0 1 1.383 0Zm-.608 2.03L6.49 8.805c-.185.692.016.873.303.866a.216.216 0 0 1 .14.385c-.141.11-.294.206-.455.284-.654.316-1.665.044-1.489-.614l.954-3.559c.185-.692-.016-.873-.302-.866a.215.215 0 0 1-.14-.385c.14-.11.293-.206.455-.284.653-.316 1.664-.044 1.488.614Z" fill="#557CE2"/><path d="M7.583 2.92c0 .2-.076.392-.213.533a.716.716 0 0 1-.515.22.716.716 0 0 1-.515-.22.767.767 0 0 1-.213-.533c0-.2.076-.391.213-.533a.716.716 0 0 1 .515-.22c.193 0 .378.08.515.22a.767.767 0 0 1 .213.533Zm-.64 2.214L5.937 9.015c-.195.755.017.953.319.945a.227.227 0 0 1 .221.155.24.24 0 0 1-.073.265c-.149.12-.31.224-.48.31-.69.345-1.755.048-1.57-.67L5.36 6.138c.196-.755-.017-.952-.319-.945a.227.227 0 0 1-.22-.154.24.24 0 0 1 .072-.266c.15-.12.31-.224.48-.31.69-.344 1.756-.047 1.57.67Z" fill="#fff"/></svg>